<?xml version="1.0" encoding="utf-8"?>
<!-- Generator: Adobe Illustrator 26.0.0, SVG Export Plug-In . SVG Version: 6.00 Build 0)  -->
<svg version="1.1" xmlns="http://www.w3.org/2000/svg" xmlns:xlink="http://www.w3.org/1999/xlink" x="0px" y="0px"
	 viewBox="0 0 750 500" style="enable-background:new 0 0 750 500;" xml:space="preserve">
<style type="text/css">
	.st0{fill:#BF0006;}
	.st1{fill:#FFBB00;}
	.st2{opacity:0.3;}
	.st3{fill:#2297AA;}
	.st4{fill:#FFB636;}
	.st5{fill:#ED9811;}
	.st6{fill:#72040C;}
	.st7{fill:#5B5B5B;}
	.st8{fill:#919191;}
	.st9{fill:#FFFFFF;}
	.st10{font-family:'Cocogoose-Light';}
	.st11{font-size:13.3174px;}
	.st12{fill:#7F361C;}
	.st13{fill:#FFC536;}
	.st14{clip-path:url(#SVGID_00000052074415073280474330000001980529537063720628_);}
	.st15{fill:#0B3A42;}
	.st16{opacity:0.2;fill:#7F361C;}
	.st17{clip-path:url(#SVGID_00000145038583579326000010000001872328676245188511_);}
	.st18{fill:#EFAA0F;}
	.st19{clip-path:url(#SVGID_00000163775432985910701010000003106829187933608079_);}
	.st20{clip-path:url(#SVGID_00000104694383839505388370000017384483520753735082_);}
	.st21{fill:#B7777C;}
</style>
<g id="BACKGROUND">
</g>
<g id="OBJECTS">
	<g>
		
			<text transform="matrix(1 0 0 1 1009.2037 205.1124)" style="fill:#494949; font-family:'Montserrat-Medium'; font-size:24.02px;">Sitio Web</text>
		
			<text transform="matrix(1 0 0 1 941.4923 230.1933)" style="fill:#F92D28; font-family:'Montserrat-ExtraBold'; font-size:24.4725px;">EN CONSTRUCIÓN</text>
		<g>
			<g>
				<path class="st0" d="M973.07,150.75c-8,0-15.6-1.49-22.79-4.45c-6.16-2.54-11.71-6.17-16.64-10.88
					c-1.41-1.34-1.64-3.62-0.51-5.24l9.38-13.42c1.31-1.87,3.87-2.18,5.62-0.73c8.05,6.67,16.66,10.01,25.84,10.01
					c3.32,0,5.85-0.63,7.6-1.9c1.74-1.27,2.62-3.07,2.62-5.41v-0.3c0-1.11-0.21-2.11-0.64-2.97c-0.43-0.86-1.21-1.7-2.36-2.51
					c-1.15-0.81-2.68-1.6-4.6-2.36c-1.91-0.76-4.4-1.55-7.47-2.36c-4.77-1.32-9.19-2.77-13.28-4.34c-4.09-1.57-7.64-3.6-10.66-6.09
					c-3.02-2.49-5.41-5.58-7.15-9.29c-1.75-3.7-2.62-8.3-2.62-13.78v-0.3c0-4.98,0.79-9.55,2.36-13.71
					c1.57-4.16,3.87-7.77,6.89-10.81c3.02-3.05,6.66-5.41,10.92-7.08c4.25-1.67,9.06-2.51,14.43-2.51c7.66,0,14.49,1.2,20.49,3.61
					c4.99,2,9.58,4.8,13.78,8.39c1.47,1.26,1.82,3.44,0.82,5.12l-8.47,14.35c-1.15,1.95-3.69,2.53-5.5,1.21
					c-3.05-2.21-6.15-3.98-9.31-5.29c-4.3-1.78-8.45-2.67-12.45-2.67c-2.98,0-5.21,0.66-6.7,1.98c-1.49,1.32-2.24,2.94-2.24,4.87
					v0.31c0,1.22,0.23,2.28,0.7,3.2c0.47,0.92,1.28,1.75,2.43,2.52c1.15,0.76,2.72,1.52,4.72,2.28c2,0.76,4.53,1.55,7.6,2.36
					c5.11,1.32,9.72,2.87,13.85,4.64c4.13,1.78,7.64,3.94,10.53,6.47c2.89,2.54,5.11,5.61,6.64,9.21s2.3,7.9,2.3,12.87v0.31
					c0,5.48-0.87,10.36-2.62,14.62c-1.75,4.26-4.19,7.9-7.34,10.89c-3.15,3-6.94,5.28-11.36,6.85
					C983.46,149.97,978.52,150.75,973.07,150.75z"/>
				<path class="st0" d="M1054.81,41.37h18.45c1.63,0,3.08,1.05,3.64,2.62l35.23,99.61c0.92,2.59-0.95,5.33-3.64,5.33h-18.29
					c-1.64,0-3.11-1.07-3.65-2.66l-5.6-16.41h-34.47l-5.49,16.39c-0.54,1.6-2.01,2.68-3.66,2.68h-17.76c-2.68,0-4.55-2.74-3.64-5.33
					l35.23-99.61C1051.73,42.41,1053.18,41.37,1054.81,41.37z M1073.8,106.97l-9.96-30.36l-10.09,30.36H1073.8z"/>
				<path class="st0" d="M1157.81,150.75c-8,0-15.6-1.49-22.79-4.45c-6.16-2.54-11.71-6.17-16.64-10.88
					c-1.41-1.34-1.64-3.62-0.51-5.24l9.38-13.42c1.31-1.87,3.87-2.18,5.62-0.73c8.05,6.67,16.66,10.01,25.84,10.01
					c3.32,0,5.85-0.63,7.6-1.9c1.74-1.27,2.62-3.07,2.62-5.41v-0.3c0-1.11-0.21-2.11-0.64-2.97c-0.43-0.86-1.21-1.7-2.36-2.51
					c-1.15-0.81-2.68-1.6-4.6-2.36c-1.91-0.76-4.4-1.55-7.47-2.36c-4.77-1.32-9.19-2.77-13.28-4.34c-4.09-1.57-7.64-3.6-10.66-6.09
					c-3.02-2.49-5.41-5.58-7.15-9.29c-1.75-3.7-2.62-8.3-2.62-13.78v-0.3c0-4.98,0.79-9.55,2.36-13.71
					c1.57-4.16,3.87-7.77,6.89-10.81c3.02-3.05,6.66-5.41,10.92-7.08c4.25-1.67,9.06-2.51,14.43-2.51c7.66,0,14.49,1.2,20.49,3.61
					c4.99,2,9.58,4.8,13.78,8.39c1.47,1.26,1.82,3.44,0.82,5.12l-8.47,14.35c-1.15,1.95-3.69,2.53-5.5,1.21
					c-3.05-2.21-6.15-3.98-9.31-5.29c-4.3-1.78-8.45-2.67-12.45-2.67c-2.98,0-5.21,0.66-6.7,1.98c-1.49,1.32-2.24,2.94-2.24,4.87
					v0.31c0,1.22,0.23,2.28,0.7,3.2c0.47,0.92,1.28,1.75,2.43,2.52c1.15,0.76,2.72,1.52,4.72,2.28c2,0.76,4.53,1.55,7.6,2.36
					c5.11,1.32,9.72,2.87,13.85,4.64c4.13,1.78,7.64,3.94,10.53,6.47c2.89,2.54,5.11,5.61,6.64,9.21c1.53,3.6,2.3,7.9,2.3,12.87
					v0.31c0,5.48-0.87,10.36-2.62,14.62c-1.75,4.26-4.19,7.9-7.34,10.89c-3.15,3-6.94,5.28-11.36,6.85
					C1168.19,149.97,1163.25,150.75,1157.81,150.75z"/>
			</g>
			<text transform="matrix(1 0 0 1 1073.0446 175.6704)" class="st8 st10" style="font-size:24.1927px;">MOTORS</text>
			<polygon class="st1" points="1000.13,175.67 1004.76,158.39 1038.3,158.39 1033.67,175.67 			"/>
			<polygon class="st0" points="1040.52,175.67 1045.15,158.39 1056.01,158.39 1051.38,175.67 			"/>
			<polygon class="st1" points="1056.65,175.67 1061.28,158.39 1072.14,158.39 1067.51,175.67 			"/>
		</g>
	</g>
	<g>
		<path class="st1" d="M558.2,314.78c0,17.08-81.03,30.93-180.99,30.93c-99.96,0-180.99-13.85-180.99-30.93
			c0-17.08,81.03-30.93,180.99-30.93C477.16,283.85,558.2,297.7,558.2,314.78z"/>
		<g>
			<path class="st0" d="M512.39,144.89v0.18c-0.24-0.62-0.49-1.24-0.76-1.84l0.13,0.13c0,0-3.34-4.58,7.39-15.31l-5.42-5.43
				l-5.43-5.43c-10.73,10.73-15.31,7.39-15.31,7.39l0.14,0.14c-0.61-0.27-1.23-0.53-1.85-0.77h0.19c0,0-5.6-0.88-5.6-16.05h-7.67
				h-7.67c0,15.17-5.6,16.05-5.6,16.05h0.19c-0.62,0.24-1.24,0.5-1.85,0.77l0.13-0.14c0,0-4.58,3.34-15.31-7.39l-5.43,5.43
				l-5.42,5.43c10.73,10.73,7.39,15.31,7.39,15.31l0.13-0.13c-0.27,0.6-0.52,1.21-0.76,1.83v-0.18c0,0-0.88,5.6-16.05,5.6v7.67v7.67
				c15.17,0,16.05,5.6,16.05,5.6v-0.17c0.24,0.61,0.49,1.22,0.76,1.82l-0.12-0.12c0,0,3.34,4.58-7.39,15.31l5.42,5.43l5.43,5.43
				c10.73-10.73,15.31-7.39,15.31-7.39l-0.12-0.12c0.6,0.27,1.2,0.52,1.81,0.75h-0.16c0,0,5.6,0.88,5.6,16.05h7.67h7.67
				c0-15.17,5.6-16.05,5.6-16.05h-0.17c0.61-0.23,1.22-0.49,1.81-0.75l-0.12,0.12c0,0,4.58-3.34,15.31,7.39l5.43-5.43l5.42-5.43
				c-10.73-10.73-7.39-15.31-7.39-15.31l-0.12,0.13c0.27-0.6,0.52-1.21,0.76-1.82v0.17c0,0,0.88-5.6,16.05-5.6v-7.67v-7.67
				C513.27,150.49,512.39,144.89,512.39,144.89z M493.49,158.17c0,8.46-6.85,15.31-15.31,15.31c-8.46,0-15.31-6.85-15.31-15.31
				c0-8.46,6.85-15.31,15.31-15.31C486.64,142.86,493.49,149.71,493.49,158.17z"/>
			<g class="st2">
				<path class="st3" d="M478.18,189.85c-17.47,0-31.69-14.21-31.69-31.69c0-17.47,14.22-31.69,31.69-31.69
					c17.47,0,31.69,14.21,31.69,31.69C509.87,175.64,495.66,189.85,478.18,189.85z M478.18,129.76c-15.66,0-28.41,12.74-28.41,28.41
					c0,15.66,12.74,28.41,28.41,28.41c15.66,0,28.41-12.74,28.41-28.41C506.59,142.5,493.85,129.76,478.18,129.76z"/>
			</g>
		</g>
		<g>
			<path class="st4" d="M401.22,121.92l0.08,0.19c-0.53-0.57-1.09-1.12-1.65-1.65l0.2,0.08c0,0-5.66-3.47,1.18-19.86l-8.29-3.46
				l-8.29-3.46c-6.83,16.39-13.29,14.81-13.29,14.81l0.21,0.09c-0.78-0.02-1.56-0.03-2.34-0.01l0.2-0.08c0,0-6.45,1.54-13.21-14.88
				l-8.31,3.42l-8.31,3.42c6.76,16.42,1.08,19.87,1.08,19.87l0.2-0.08c-0.57,0.54-1.12,1.09-1.66,1.65l0.09-0.21
				c0,0-3.47,5.66-19.86-1.18l-3.46,8.29l-3.46,8.29c16.39,6.84,14.81,13.29,14.81,13.29l0.08-0.2c-0.02,0.77-0.03,1.55-0.01,2.32
				l-0.08-0.19c0,0,1.54,6.46-14.88,13.21l3.42,8.31l3.41,8.31c16.43-6.75,19.87-1.08,19.87-1.08l-0.07-0.18
				c0.53,0.56,1.07,1.1,1.63,1.63l-0.19-0.08c0,0,5.66,3.47-1.18,19.86l8.29,3.46l8.29,3.46c6.84-16.39,13.29-14.81,13.29-14.81
				l-0.19-0.08c0.77,0.02,1.53,0.03,2.3,0.01l-0.18,0.07c0,0,6.45-1.54,13.21,14.88l8.31-3.42l8.31-3.42
				c-6.76-16.43-1.08-19.87-1.08-19.87l-0.18,0.07c0.56-0.53,1.1-1.07,1.63-1.62l-0.08,0.18c0,0,3.48-5.66,19.86,1.18l3.46-8.29
				l3.46-8.29c-16.39-6.84-14.81-13.29-14.81-13.29l-0.08,0.19c0.02-0.77,0.02-1.54,0.01-2.31l0.08,0.19c0,0-1.54-6.46,14.88-13.21
				l-3.42-8.31l-3.42-8.31C404.66,127.6,401.22,121.92,401.22,121.92z M386.67,144.71c3.76,9.15-0.61,19.62-9.76,23.39
				c-9.15,3.76-19.62-0.6-23.39-9.76c-3.77-9.15,0.6-19.62,9.76-23.39C372.43,131.19,382.91,135.56,386.67,144.71z"/>
			<g class="st2">
				<path class="st5" d="M384.2,185.82c-18.92,7.78-40.63-1.28-48.41-20.2c-7.78-18.92,1.28-40.63,20.2-48.41s40.63,1.28,48.41,20.2
					C412.17,156.33,403.11,178.05,384.2,185.82z M357.45,120.77c-16.96,6.97-25.08,26.44-18.11,43.4
					c6.97,16.96,26.44,25.08,43.4,18.11c16.96-6.97,25.08-26.44,18.11-43.4C393.87,121.92,374.41,113.8,357.45,120.77z"/>
			</g>
		</g>
		<g>
			<path class="st0" d="M300.93,146.95v0.15c-0.2-0.53-0.42-1.04-0.65-1.55l0.11,0.11c0,0-2.83-3.87,6.24-12.93l-4.58-4.58
				l-4.58-4.58c-9.06,9.06-12.94,6.24-12.94,6.24l0.12,0.12c-0.51-0.23-1.03-0.45-1.56-0.65h0.16c0,0-4.73-0.74-4.73-13.56h-6.48
				h-6.48c0,12.82-4.73,13.56-4.73,13.56h0.16c-0.53,0.2-1.05,0.42-1.56,0.65l0.12-0.11c0,0-3.87,2.82-12.94-6.24l-4.58,4.58
				l-4.58,4.58c9.06,9.06,6.24,12.93,6.24,12.93l0.11-0.11c-0.23,0.51-0.44,1.02-0.64,1.55v-0.15c0,0-0.74,4.73-13.56,4.73v6.48
				v6.48c12.82,0,13.56,4.73,13.56,4.73v-0.14c0.2,0.52,0.41,1.03,0.64,1.54l-0.11-0.11c0,0,2.82,3.87-6.24,12.93l4.58,4.58
				l4.58,4.58c9.06-9.06,12.94-6.24,12.94-6.24l-0.1-0.1c0.5,0.22,1.01,0.44,1.53,0.64h-0.14c0,0,4.73,0.74,4.73,13.56h6.48h6.48
				c0-12.82,4.73-13.56,4.73-13.56h-0.14c0.52-0.2,1.03-0.41,1.53-0.64l-0.1,0.1c0,0,3.87-2.82,12.94,6.24l4.58-4.58l4.58-4.58
				c-9.06-9.06-6.24-12.93-6.24-12.93l-0.11,0.11c0.23-0.51,0.44-1.02,0.64-1.54v0.15c0,0,0.74-4.73,13.56-4.73v-6.48v-6.48
				C301.67,151.68,300.93,146.95,300.93,146.95z M284.97,158.17c0,7.14-5.79,12.93-12.94,12.93c-7.14,0-12.93-5.79-12.93-12.93
				c0-7.14,5.79-12.93,12.93-12.93C279.17,145.23,284.97,151.02,284.97,158.17z"/>
			<g class="st2">
				<path class="st3" d="M272.03,184.93c-14.76,0-26.77-12.01-26.77-26.77c0-14.76,12.01-26.77,26.77-26.77
					c14.76,0,26.77,12.01,26.77,26.77C298.8,172.92,286.79,184.93,272.03,184.93z M272.03,134.17c-13.23,0-24,10.77-24,24
					c0,13.23,10.77,24,24,24c13.23,0,24-10.77,24-24C296.03,144.93,285.26,134.17,272.03,134.17z"/>
			</g>
		</g>
		<g>
			<g>
				<g>
					<g>
						<g>
							<rect x="341.39" y="292.46" class="st0" width="71.63" height="12.71"/>
							<polygon class="st6" points="424.23,314.02 330.17,314.02 341.39,305.16 413.02,305.16 							"/>
						</g>
						<g>
							<g>
								<path class="st7" d="M485.76,288.04c0,3.7-3.03,6.73-6.73,6.73H275.38c-3.7,0-6.73-3.03-6.73-6.73V159.49
									c0-3.7,3.03-6.73,6.73-6.73h203.65c3.7,0,6.73,3.03,6.73,6.73V288.04z"/>
								<path class="st8" d="M479.02,152.76H275.38c-3.7,0-6.73,3.03-6.73,6.73v115.99h217.11V159.49
									C485.76,155.79,482.73,152.76,479.02,152.76z"/>
							</g>
							<rect x="276.22" y="159.86" class="st9" width="201.96" height="108.21"/>
						</g>
						<g>
							<g>
								<path class="st0" d="M327.6,232.89c-4.4,0-8.59-0.82-12.54-2.45c-3.39-1.4-6.44-3.4-9.16-5.99
									c-0.78-0.74-0.9-1.99-0.28-2.88l5.16-7.39c0.72-1.03,2.13-1.2,3.09-0.4c4.43,3.67,9.17,5.51,14.22,5.51
									c1.83,0,3.22-0.35,4.18-1.05c0.96-0.7,1.44-1.69,1.44-2.98v-0.17c0-0.61-0.12-1.16-0.35-1.63c-0.23-0.47-0.67-0.94-1.3-1.38
									c-0.63-0.45-1.48-0.88-2.53-1.3c-1.05-0.42-2.42-0.85-4.11-1.3c-2.62-0.73-5.06-1.52-7.31-2.39
									c-2.25-0.87-4.21-1.98-5.87-3.35c-1.66-1.37-2.98-3.07-3.94-5.11c-0.96-2.04-1.44-4.57-1.44-7.59v-0.17
									c0-2.74,0.43-5.25,1.3-7.55c0.87-2.29,2.13-4.28,3.79-5.95c1.66-1.68,3.67-2.98,6.01-3.9c2.34-0.92,4.99-1.38,7.94-1.38
									c4.22,0,7.98,0.66,11.28,1.99c2.75,1.1,5.27,2.64,7.58,4.62c0.81,0.69,1,1.89,0.45,2.82l-4.66,7.9
									c-0.63,1.08-2.03,1.39-3.03,0.67c-1.68-1.22-3.38-2.19-5.12-2.91c-2.37-0.98-4.65-1.47-6.85-1.47
									c-1.64,0-2.87,0.36-3.69,1.09c-0.82,0.73-1.23,1.62-1.23,2.68v0.17c0,0.67,0.13,1.26,0.39,1.76c0.26,0.5,0.7,0.96,1.34,1.38
									c0.63,0.42,1.5,0.84,2.6,1.26c1.1,0.42,2.49,0.85,4.18,1.3c2.81,0.73,5.35,1.58,7.62,2.56c2.27,0.98,4.2,2.17,5.8,3.56
									c1.59,1.4,2.81,3.09,3.65,5.07c0.84,1.98,1.26,4.35,1.26,7.08v0.17c0,3.02-0.48,5.7-1.44,8.05
									c-0.96,2.35-2.31,4.35-4.04,5.99c-1.73,1.65-3.82,2.91-6.25,3.77C333.32,232.46,330.6,232.89,327.6,232.89z"/>
								<path class="st0" d="M372.6,172.68h10.16c0.9,0,1.7,0.58,2,1.44l19.4,54.83c0.5,1.43-0.52,2.93-2,2.93h-10.07
									c-0.9,0-1.71-0.59-2.01-1.46l-3.08-9.03h-18.97l-3.02,9.02c-0.3,0.88-1.1,1.48-2.01,1.48h-9.78c-1.48,0-2.51-1.51-2-2.93
									l19.4-54.83C370.9,173.25,371.7,172.68,372.6,172.68z M383.05,208.79l-5.48-16.71l-5.55,16.71H383.05z"/>
								<path class="st0" d="M429.29,232.89c-4.4,0-8.59-0.82-12.54-2.45c-3.39-1.4-6.44-3.4-9.16-5.99
									c-0.78-0.74-0.9-1.99-0.28-2.88l5.16-7.39c0.72-1.03,2.13-1.2,3.09-0.4c4.43,3.67,9.17,5.51,14.22,5.51
									c1.83,0,3.22-0.35,4.18-1.05c0.96-0.7,1.44-1.69,1.44-2.98v-0.17c0-0.61-0.12-1.16-0.35-1.63c-0.23-0.47-0.67-0.94-1.3-1.38
									c-0.63-0.45-1.48-0.88-2.53-1.3c-1.05-0.42-2.42-0.85-4.11-1.3c-2.62-0.73-5.06-1.52-7.31-2.39
									c-2.25-0.87-4.21-1.98-5.87-3.35c-1.66-1.37-2.98-3.07-3.94-5.11c-0.96-2.04-1.44-4.57-1.44-7.59v-0.17
									c0-2.74,0.43-5.25,1.3-7.55c0.87-2.29,2.13-4.28,3.79-5.95c1.66-1.68,3.67-2.98,6.01-3.9c2.34-0.92,4.99-1.38,7.94-1.38
									c4.22,0,7.98,0.66,11.28,1.99c2.75,1.1,5.27,2.64,7.58,4.62c0.81,0.69,1,1.89,0.45,2.82l-4.66,7.9
									c-0.63,1.08-2.03,1.39-3.03,0.67c-1.68-1.22-3.38-2.19-5.12-2.91c-2.37-0.98-4.65-1.47-6.85-1.47
									c-1.64,0-2.87,0.36-3.69,1.09c-0.82,0.73-1.23,1.62-1.23,2.68v0.17c0,0.67,0.13,1.26,0.39,1.76c0.26,0.5,0.7,0.96,1.34,1.38
									c0.63,0.42,1.5,0.84,2.6,1.26c1.1,0.42,2.49,0.85,4.18,1.3c2.81,0.73,5.35,1.58,7.62,2.56c2.27,0.98,4.2,2.17,5.8,3.56
									c1.59,1.4,2.81,3.09,3.65,5.07c0.84,1.98,1.26,4.35,1.26,7.08v0.17c0,3.02-0.48,5.7-1.44,8.05
									c-0.96,2.35-2.31,4.35-4.04,5.99c-1.73,1.65-3.82,2.91-6.25,3.77C435.01,232.46,432.29,232.89,429.29,232.89z"/>
							</g>
							<text transform="matrix(1 0 0 1 382.6327 246.6073)" class="st8 st10 st11">MOTORS</text>
							<polygon class="st1" points="342.49,246.61 345.04,237.09 363.51,237.09 360.96,246.61 							"/>
							<polygon class="st0" points="364.73,246.61 367.28,237.09 373.26,237.09 370.71,246.61 							"/>
							<polygon class="st1" points="373.61,246.61 376.16,237.09 382.13,237.09 379.59,246.61 							"/>
						</g>
					</g>
				</g>
				<circle class="st9" cx="377.2" cy="284.02" r="4.39"/>
			</g>
		</g>
		<g>
			<g>
				<g>
					<g>
						<g>
							<rect x="423.93" y="262.01" class="st12" width="7.47" height="54.41"/>
							<path class="st12" d="M438.18,314.2c0,1.22-0.99,2.22-2.22,2.22h-16.59c-1.22,0-2.22-0.99-2.22-2.22l0,0
								c0-1.22,0.99-2.21,2.22-2.21h16.59C437.18,311.98,438.18,312.98,438.18,314.2L438.18,314.2z"/>
						</g>
						<g>
							<rect x="504.54" y="262.01" class="st12" width="7.47" height="54.41"/>
							<path class="st12" d="M518.79,314.2c0,1.22-0.99,2.22-2.22,2.22h-16.59c-1.22,0-2.22-0.99-2.22-2.22l0,0
								c0-1.22,0.99-2.21,2.22-2.21h16.59C517.8,311.98,518.79,312.98,518.79,314.2L518.79,314.2z"/>
						</g>
					</g>
					<g>
						<rect x="412.12" y="237.91" class="st13" width="112.97" height="32.84"/>
						<g>
							<defs>
								<rect id="SVGID_1_" x="412.12" y="237.91" width="112.97" height="32.84"/>
							</defs>
							<clipPath id="SVGID_00000024696856273305820440000007797763667879070902_">
								<use xlink:href="#SVGID_1_"  style="overflow:visible;"/>
							</clipPath>
							<g style="clip-path:url(#SVGID_00000024696856273305820440000007797763667879070902_);">
								<polygon class="st15" points="416.23,270.75 395.98,270.75 408.7,237.91 428.95,237.91 								"/>
								<polygon class="st15" points="454.38,270.75 434.14,270.75 446.86,237.91 467.1,237.91 								"/>
								<polygon class="st15" points="492.54,270.75 472.3,270.75 485.01,237.91 505.26,237.91 								"/>
								<polygon class="st15" points="530.7,270.75 510.45,270.75 523.17,237.91 543.42,237.91 								"/>
							</g>
						</g>
					</g>
				</g>
				<rect x="412.12" y="262.01" class="st16" width="112.97" height="8.74"/>
			</g>
			<g>
				<g>
					<g>
						<g>
							<rect x="240.99" y="262.01" class="st12" width="7.47" height="54.41"/>
							<path class="st12" d="M255.23,314.2c0,1.22-0.99,2.22-2.22,2.22h-16.59c-1.22,0-2.21-0.99-2.21-2.22l0,0
								c0-1.22,0.99-2.21,2.21-2.21h16.59C254.24,311.98,255.23,312.98,255.23,314.2L255.23,314.2z"/>
						</g>
						<g>
							<rect x="321.6" y="262.01" class="st12" width="7.47" height="54.41"/>
							<path class="st12" d="M335.85,314.2c0,1.22-0.99,2.22-2.22,2.22h-16.59c-1.22,0-2.21-0.99-2.21-2.22l0,0
								c0-1.22,0.99-2.21,2.21-2.21h16.59C334.85,311.98,335.85,312.98,335.85,314.2L335.85,314.2z"/>
						</g>
					</g>
					<g>
						<rect x="229.18" y="237.91" class="st13" width="112.97" height="32.84"/>
						<g>
							<defs>
								
									<rect id="SVGID_00000045620952195760617600000017905121334497721255_" x="229.18" y="237.91" width="112.97" height="32.84"/>
							</defs>
							<clipPath id="SVGID_00000058579090776783355240000011696770266560416160_">
								<use xlink:href="#SVGID_00000045620952195760617600000017905121334497721255_"  style="overflow:visible;"/>
							</clipPath>
							<g style="clip-path:url(#SVGID_00000058579090776783355240000011696770266560416160_);">
								<polygon class="st15" points="233.28,270.75 213.04,270.75 225.76,237.91 246,237.91 								"/>
								<polygon class="st15" points="271.44,270.75 251.2,270.75 263.91,237.91 284.16,237.91 								"/>
								<polygon class="st15" points="309.6,270.75 289.35,270.75 302.07,237.91 322.32,237.91 								"/>
								<polygon class="st15" points="347.75,270.75 327.51,270.75 340.23,237.91 360.47,237.91 								"/>
							</g>
						</g>
					</g>
				</g>
				<rect x="229.18" y="262.01" class="st16" width="112.97" height="8.74"/>
			</g>
		</g>
		<g>
			<g>
				<polygon class="st18" points="367.43,331.64 321.15,331.64 326.79,326.58 361.8,326.58 				"/>
				<g>
					<polygon class="st4" points="361.8,326.58 326.79,326.58 337.25,278.69 351.34,278.69 					"/>
					<g>
						<defs>
							<polygon id="SVGID_00000065795045581817287510000008624806924139944590_" points="361.8,326.58 326.79,326.58 337.25,278.69 
								351.34,278.69 							"/>
						</defs>
						<clipPath id="SVGID_00000180356557191479833150000018316489942759628946_">
							<use xlink:href="#SVGID_00000065795045581817287510000008624806924139944590_"  style="overflow:visible;"/>
						</clipPath>
						<g style="clip-path:url(#SVGID_00000180356557191479833150000018316489942759628946_);">
							<rect x="322.36" y="314.76" class="st9" width="43.87" height="6.63"/>
							<polygon class="st9" points="322.36,300.24 322.36,306.69 322.36,306.88 366.23,306.88 366.23,306.69 366.23,300.24 
								366.23,300.06 322.36,300.06 							"/>
							<rect x="322.36" y="285.54" class="st9" width="43.87" height="6.63"/>
						</g>
					</g>
				</g>
			</g>
			<polygon class="st16" points="330.18,331.64 333.67,326.59 341.03,278.69 337.25,278.69 326.79,326.58 321.15,331.64 			"/>
		</g>
		<g>
			<g>
				<polygon class="st18" points="434.53,330.4 362.38,330.4 371.17,322.51 425.75,322.51 				"/>
				<g>
					<polygon class="st4" points="425.75,322.51 371.17,322.51 387.48,247.85 409.44,247.85 					"/>
					<g>
						<defs>
							<polygon id="SVGID_00000017479334746172335600000002378730813376215432_" points="425.75,322.51 371.17,322.51 
								387.48,247.85 409.44,247.85 							"/>
						</defs>
						<clipPath id="SVGID_00000121993425453300718370000004327302517724639897_">
							<use xlink:href="#SVGID_00000017479334746172335600000002378730813376215432_"  style="overflow:visible;"/>
						</clipPath>
						<g style="clip-path:url(#SVGID_00000121993425453300718370000004327302517724639897_);">
							<rect x="364.26" y="304.09" class="st9" width="68.39" height="10.34"/>
							<polygon class="st9" points="364.26,281.46 364.26,291.51 364.26,291.8 432.65,291.8 432.65,291.51 432.65,281.46 
								432.65,281.17 364.26,281.17 							"/>
							<rect x="364.26" y="258.54" class="st9" width="68.39" height="10.34"/>
						</g>
					</g>
				</g>
			</g>
			<polygon class="st16" points="376.45,330.4 381.9,322.52 393.38,247.85 387.48,247.85 371.17,322.51 362.38,330.4 			"/>
		</g>
		<g>
			<path class="st21" d="M560.75,93.24c-2.05,0-3.86,1.01-4.98,2.55c-3.03-6.22-9.39-10.51-16.78-10.51
				c-7.01,0-13.09,3.87-16.29,9.57c-1.64-2.06-4.16-3.38-7-3.38c-3.8,0-7.05,2.37-8.35,5.71h14.25h2.45h30.94h1.4h10.13
				C565.62,94.88,563.38,93.24,560.75,93.24z"/>
			<path class="st21" d="M480.48,72.8c-1.87,0-3.57,0.72-4.84,1.9c-4.82-9.46-14.61-15.95-25.96-15.95
				c-8.72,0-16.52,3.84-21.86,9.91c-3.73-3.13-8.53-5.03-13.79-5.03c-8.07,0-15.08,4.45-18.75,11.02c-1.89-2.37-4.8-3.89-8.07-3.89
				c-4.38,0-8.11,2.73-9.61,6.58h16.41h2.82h25.69h11.55h39.77h3h10.28C486.09,74.68,483.51,72.8,480.48,72.8z"/>
			<path class="st21" d="M316.17,87.89c-2.66,0-5.01,1.31-6.47,3.31c-3.93-8.06-12.19-13.63-21.76-13.63
				c-10.28,0-19.04,6.41-22.57,15.44h43.32h1.81h13.15C322.48,90.01,319.58,87.89,316.17,87.89z"/>
		</g>
	</g>
</g>
<g id="DESIGNED_BY_FREEPIK">
</g>
</svg>
