<?xml version="1.0" encoding="utf-8"?>
<!-- Generator: Adobe Illustrator 26.0.0, SVG Export Plug-In . SVG Version: 6.00 Build 0)  -->
<svg version="1.1" id="Capa_1" xmlns="http://www.w3.org/2000/svg" xmlns:xlink="http://www.w3.org/1999/xlink" x="0px" y="0px"
	 viewBox="0 0 52 52" style="enable-background:new 0 0 52 52;" xml:space="preserve">
<style type="text/css">
	.st0{fill:#FCFBFC;}
	.st1{fill:#F2F2F2;}
	.st2{fill:#030404;}
</style>
<path class="st0" d="M27.5,13.6c0,7-5.7,12.5-12.7,12.4C8,25.9,2.3,20.1,2.4,13.4c0-6.9,5.8-12.6,12.7-12.5
	C22,0.9,27.5,6.5,27.5,13.6z"/>
<path class="st1" d="M473.2-318.3c0-7.2,0-14.3,0-21.5c0-2,0-3.5,2.8-3.5c2.9-0.1,2.8,1.5,2.7,3.4c0,5.3,0,10.6,0,16
	c0,1.2-0.5,2.9,1.7,2.8c2-0.1,1.8-1.6,1.8-2.9c0-3.7,0.1-7.3,0-11c-0.1-2.8,1-3.9,3.8-3.6c1.6,0.2,3.3-0.1,5,0.1
	c1.9,0.1,3.2-0.2,3-2.6c-0.3-3.8,1.8-4.9,5.3-4.7c3.3,0.2,6.7,0,10,0.1c1.5,0,2.7-0.1,2.6-2c-0.1-1.7-1.3-1.6-2.5-1.6
	c-3.5,0-7,0-10.5,0c-1.4,0-2.7,0.2-2.7-1.9c0-1.8,0.5-2.7,2.5-2.7c9.8,0.1,19.7,0.1,29.5,0c1.9,0,2.6,0.6,2.7,2.6
	c0,2.5-1.6,2.1-3,2.1c-3.2,0-6.3,0-9.5,0c-1.4,0-2.7,0-2.6,2c0.1,1.8,1.4,1.5,2.6,1.5c3.7,0,7.3,0.2,11,0c3.7-0.2,5.5,1.3,5,4.9
	c-0.6,4.3,0.8,6.1,5.3,5.4c4.5-0.8,7.1,0.9,6.5,5.9c-0.4,3.1,1.6,2.9,3.7,3c2.4,0.1,3.3-0.7,3.1-3.1c-0.1-2.7-0.3-5.8,3.6-5.8
	c3.4,0,7.2-1.3,9.1,3.6c5.2,13.2,6.3,26.4,0.6,39.7c-1.8,4.2-7.1,6-11.2,4.1c-2.8-1.3-2.1-3.9-2.2-6.1c-0.1-2.1,0.5-4.2-3.1-4.2
	c-3.3,0-3.9,1.4-3.8,4.2c0.4,11.2-0.8,9.4-10,9.5c-4.2,0-8.4-0.4-12.5,0.1c-8.1,0.9-15.2-0.8-20.6-7.2c-3.9-4.7-8.9-4.9-14.4-4.7
	c-6.1,0.2-6.4-0.3-6.5-6.5c0-3.2,0-6.3,0-9.5c0-1.3,0.3-2.8-1.7-2.9c-2.3-0.1-1.7,1.5-1.7,2.8c0,5.5,0,11,0,16.5
	c0,1.9,0.2,3.5-2.7,3.5c-2.8-0.1-2.8-1.5-2.8-3.5C473.3-303.7,473.2-311,473.2-318.3z M485.7-317.8c0,4.7,0.2,9.3-0.1,14
	c-0.2,3,0.7,3.9,3.8,3.9c4,0,8.5-1.7,11.8,2.1c7.6,8.7,17.2,11,28.2,9.6c2-0.3,4,0,6,0c7.2,0,7.4,0,7.2-7.3c-0.2-4.5,1.3-6.3,6-6.1
	c7.7,0.3,7.8,0.1,8,6c0.1,1.4-1.5,3.8,1.7,4.2c2.7,0.3,4.2-0.6,5.3-3.2c4.6-11.8,3.8-23.3-0.7-34.9c-0.9-2.4-2.3-2.9-4.5-2.7
	c-2.8,0.2-1.8,2.5-1.7,3.8c0.2,4-1.7,5.4-5.4,5.1c-1.3-0.1-2.7-0.1-4,0c-3.1,0.2-5-1.1-4.5-4.3c0.7-4.3-1.5-4.7-5-4.6
	c-6.7,0.2-6.8,0-6.9-6.9c0-2.6-0.7-3.4-3.4-3.3c-8.8,0.2-17.6,0-26.5,0.1c-1.1,0-3.4-0.9-3.2,1.1c0.7,7.2-4.3,6.2-8.5,6
	c-2.8-0.1-3.8,0.6-3.6,3.5C485.9-327.1,485.7-322.5,485.7-317.8z"/>
<path class="st0" d="M28.4,40.2c-3.4-1.5-5,0.6-6.6,2.9c-1.5,2.1-3.2,4-4.9,6c-1.9,2.2-4.2,2.7-6.1,1.2c-1.9-1.5-2.1-4-0.3-6.2
	c3-3.8,6.1-7.5,9.2-11.2c1.7-2,2.1-1.8,3.5,0.4C24.7,35.7,26.6,37.9,28.4,40.2z"/>
<path class="st0" d="M28.4,28.4c0.9-0.1,1.6,0.5,2.2,1.2c4.6,5.6,9.3,11.1,13.9,16.7c1,1.2,1.3,2.7,0,3.8c-1.4,1.2-2.8,0.8-3.9-0.5
	c-4.7-5.6-9.3-11.1-14-16.7c-0.8-0.9-1-1.9-0.5-3C26.5,29,27.2,28.4,28.4,28.4z"/>
<path class="st0" d="M39.2,34.9c-2.3-2.7-4.3-5.1-6.2-7.4c-0.2-0.2-0.5-0.4-0.4-0.6c0.5-4,0.3-8.2,2.4-11.8c1-1.7,3-1.8,4.7-1
	c1.7,0.8,2.6,2.4,2.2,4.3C41.1,23.8,40.2,29.1,39.2,34.9z"/>
<path class="st0" d="M232.7-301.8c-4.4,0.4-8.3,1.3-9.2-4.6c-0.3-2.1-10.8-1.7-11.9,0.2c-2.5,4.7-2.5,4.7-9,4.3
	c3.4-9.8,6.5-19.6,10.1-29.2c1.2-3.3,4.6-0.9,7-1.5c1.9-0.5,2.9,0.5,3.5,2.4C226.3-320.7,229.5-311.4,232.7-301.8z M217.6-324.9
	c-1,2.9-1.8,4.9-2.3,6.9c-0.3,1.2-1.9,3,0,3.8c1.4,0.6,3.5,0.6,4.8,0c1.7-0.9,0.1-2.6-0.3-3.8C219.2-320.1,218.5-322,217.6-324.9z"
	/>
<path class="st0" d="M258.7-317.3c0.2-15.3,8.1-16.8,20.3-15.2c3.5,0.4,1.9,3.3,2.1,5.2c0.3,3.1-2.2,1.9-3.4,1.6
	c-8.2-1.9-13,0.6-11,12.2c0.8,4.9,3.5,6.2,9.8,5.4c1.7-0.2,4.4-2.3,4.7,1.7c0.3,3.1-0.3,4.7-4.1,5.1
	C264.1-300,258.7-304.4,258.7-317.3z"/>
<path class="st0" d="M36.1,12.4c-3.2,0-5.7-2.5-5.7-5.7c0-3.3,2.5-5.9,5.8-5.9c3.1,0.1,5.7,2.7,5.7,5.8
	C41.9,9.8,39.2,12.4,36.1,12.4z"/>
<path class="st0" d="M233.3-296.4c5-12.3,9.8-24,14.7-35.7c1.5-3.5,4.9-2.1,6.9-1.5c2.2,0.7,0,2.8-0.5,4.1
	c-3.7,9.2-7.6,18.3-11.4,27.4C240.4-296,240.5-296,233.3-296.4z"/>
<path class="st1" d="M49.6,15.3c-0.6,1.9-2.1,3-3.7,4.1c-0.7,0.5-0.9-0.3-0.9-0.9c-0.1-1.3,0-2.6-0.3-3.9c-0.4-1.4,1.1-2,2.2-2
	C48.5,12.4,49.4,13.5,49.6,15.3z"/>
<path class="st2" d="M485.7-317.8c0-4.7,0.2-9.3-0.1-14c-0.2-2.9,0.9-3.7,3.6-3.5c4.2,0.2,9.2,1.2,8.5-6c-0.2-2,2.1-1.1,3.2-1.1
	c8.8-0.1,17.7,0.1,26.5-0.1c2.6,0,3.3,0.7,3.4,3.3c0,6.9,0.2,7.1,6.9,6.9c3.5-0.1,5.7,0.3,5,4.6c-0.5,3.2,1.4,4.5,4.5,4.3
	c1.3-0.1,2.7-0.1,4,0c3.8,0.4,5.6-1.1,5.4-5.1c-0.1-1.3-1.1-3.5,1.7-3.8c2.2-0.2,3.6,0.3,4.5,2.7c4.6,11.6,5.3,23.1,0.7,34.9
	c-1,2.6-2.6,3.5-5.3,3.2c-3.2-0.4-1.7-2.8-1.7-4.2c-0.3-5.9-0.3-5.8-8-6c-4.7-0.2-6.1,1.6-6,6.1c0.3,7.3,0,7.3-7.2,7.3
	c-2,0-4-0.2-6,0c-11,1.4-20.6-0.8-28.2-9.6c-3.3-3.8-7.8-2.1-11.8-2.1c-3.1,0-4-0.9-3.8-3.9C485.9-308.5,485.7-313.2,485.7-317.8z"
	/>
<path class="st2" d="M217.6-324.9c0.9,2.8,1.6,4.8,2.2,6.8c0.4,1.3,2,2.9,0.3,3.8c-1.3,0.7-3.4,0.6-4.8,0c-1.9-0.8-0.3-2.6,0-3.8
	C215.7-320,216.6-322,217.6-324.9z"/>
</svg>
