<?xml version="1.0" encoding="utf-8"?>
<!-- Generator: Adobe Illustrator 26.0.0, SVG Export Plug-In . SVG Version: 6.00 Build 0)  -->
<svg version="1.1" id="Capa_1" xmlns="http://www.w3.org/2000/svg" xmlns:xlink="http://www.w3.org/1999/xlink" x="0px" y="0px"
	 viewBox="0 0 52 52" style="enable-background:new 0 0 52 52;" xml:space="preserve">
<style type="text/css">
	.st0{fill:#F8F7F7;}
</style>
<g>
	<path class="st0" d="M32.8,29.4c-1.3,0.2-1-0.7-1-1.4c0-0.7,0-1.4,0-2.1c0-2,0-2-2-1.9c-0.8,0.1-1.6,0.1-1.4,1.2
		c0.2,1.1,1,0.3,1.7,0.4c0,0.9,0,1.9,0,2.9c0,0.5,0,1-0.7,0.8c-0.7-0.1-0.7,0.3-0.7,0.8c0,0.7,0.5,0.6,0.8,0.6c1,0,2.1,0,3.1,0
		c0.4,0,0.6-0.1,0.6-0.5C33.2,29.9,33.4,29.3,32.8,29.4z"/>
	<path class="st0" d="M37.5,23.7c-0.2,0-0.4,0-0.6,0c-0.6,0-1.2,0-1.8,0c-0.6,0-0.8,0.2-0.8,0.8c0,0.6,0.3,0.7,0.8,0.6
		c0.6,0,1.2,0,1.8,0c0.2,0,0.6-0.2,0.7,0.2c0.2,0.4,0,0.6-0.3,0.9c-0.3,0.3-0.6,0.6-0.9,0.9c-1.1,0.8-1,2-1,3.1
		c0,0.7,0.5,0.5,0.9,0.5c0.4,0,1,0.1,0.8-0.6c-0.3-1.5,0.7-2.3,1.6-3.1c1-0.9,0.7-2,0.5-3C39.2,23.3,38.1,23.9,37.5,23.7z"/>
	<path class="st0" d="M50.6,27.6c-0.6-0.8-1.3-0.4-2-0.2c-0.2,0.1-0.4-0.2-0.6-0.2c-2.3-0.3-2.7-0.1-2.7,1.7c0,0.4,0,0.8,0,1.3
		c0,0.4,0,0.7,0.6,0.7c0.6,0,0.6-0.3,0.6-0.7c0-0.5,0-0.9,0-1.4c0-0.5,0.4-0.5,0.6-0.6c0.4-0.1,0.5,0.3,0.5,0.6c0,0.5,0,1,0,1.5
		c0,0.4,0.2,0.6,0.6,0.6c0.4,0,0.6-0.2,0.6-0.6c0-0.5,0-1,0-1.5c0-0.4,0.2-0.7,0.5-0.7c0.3,0,0.6,0.3,0.6,0.6c0,0.5,0,1,0,1.5
		c0,0.4,0.1,0.6,0.5,0.6c0.4,0,0.7-0.1,0.6-0.5C50.8,29.3,51.2,28.4,50.6,27.6z"/>
	<path class="st0" d="M43.7,29.9c-0.5,0-1-0.3-0.9-1c0.1-0.8,0.6-0.9,1.1-0.8c0.4,0.1,0.6,0.2,0.6-0.3c0-0.3,0.1-0.7-0.4-0.7
		c-0.8,0-1.6-0.1-2.1,0.7c-0.5,0.7-0.4,1.4-0.2,2c0.3,0.6,0.9,1.2,1.5,1c0.7-0.1,1.3,0.2,1.2-0.6C44.4,29.3,44,29.9,43.7,29.9z"/>
	<path class="st0" d="M20.9,16.7c2,0.1,3.9,0,6.1,0c-4.4-5.6-8.5-10.9-12.7-16.3C10,5.9,5.9,11.2,1.6,16.7c2.3,0,4.3,0.1,6.3,0
		C8.8,16.7,9,17,9,17.9c0,5.5-0.1,11,0,16.5c0,1-0.4,1.1-1.2,1.1c-2-0.1-4,0-6.3,0c4.4,5.6,8.5,10.9,12.7,16.3
		C18.5,46.4,22.7,41,27,35.5c-2.3,0-4.3-0.1-6.3,0c-0.9,0-1.2-0.3-1.2-1.2c0-5.5,0.1-10.9,0-16.4C19.5,16.8,19.9,16.7,20.9,16.7z
		 M18.3,36.2c0,0.8,0.2,1,1,1c1.4-0.1,2.9,0,4.6,0c-3.3,4.2-6.4,8.2-9.6,12.3c-3.2-4.1-6.3-8.1-9.7-12.3c1.7,0,3.1,0,4.5,0
		c0.8,0,1.1-0.1,1.1-1c0-6.7,0-13.4,0-20.1c0-0.8-0.2-1-1-1c-1.4,0.1-2.9,0-4.6,0c3.3-4.2,6.4-8.2,9.6-12.3
		c3.2,4.1,6.3,8.1,9.7,12.3c-1.7,0-3.1,0-4.5,0c-0.8,0-1.1,0.1-1.1,1.1C18.3,22.8,18.3,29.5,18.3,36.2z"/>
</g>
</svg>
