<?xml version="1.0" encoding="utf-8"?>
<!-- Generator: Adobe Illustrator 26.0.0, SVG Export Plug-In . SVG Version: 6.00 Build 0)  -->
<svg version="1.1" id="Capa_1" xmlns="http://www.w3.org/2000/svg" xmlns:xlink="http://www.w3.org/1999/xlink" x="0px" y="0px"
	 viewBox="0 0 82 82" style="enable-background:new 0 0 82 82;" xml:space="preserve">
<style type="text/css">
	.st0{fill:#08080A;}
</style>
<g>
	<path class="st0" d="M57.6,60.9c-0.9,0-1.8,0-2.6,0c-1.3,0-2.4-1.1-2.4-2.4c0-0.7,0-1.4,0-2.1c0-1.4,1-2.5,2.5-2.5c1.7,0,3.3,0,5,0
		c1.4,0,2.4,1.1,2.4,2.5c0,0.7,0,1.4,0,2.1c0,1.3-1.1,2.4-2.4,2.4C59.2,60.9,58.4,60.9,57.6,60.9z M57.5,58.6c0.3,0,0.6,0,0.9,0
		c1.8,0,1.8,0,1.8-1.8c0-0.4-0.1-0.5-0.5-0.5c-1,0-2,0-3,0c-1.8,0-1.8,0-1.8,1.8c0,0.4,0.1,0.5,0.5,0.5
		C56.1,58.6,56.8,58.6,57.5,58.6z"/>
	<path class="st0" d="M1.5,69.7c0.6-1,1.2-1.9,2.5-2.1c0.7-0.1,1.4-0.1,2.1,0c0.6,0,0.7-0.1,0.7-0.7c0-6.6,0-13.2,0-19.8
		c0-5.3,0-10.5,0-15.7c0-2.6,2-4.7,4.6-4.6c3.4,0.1,6.8,0,10.3,0c0.6,0,0.8-0.1,0.8-0.7c-0.1-1.1,0-2.3,0-3.4c0-0.7,0.1-1.4,0.6-1.9
		c0.6-0.6,0.7-1.3,0.8-2.1c0.9-7.9,7.2-14.3,15-15.2c9.5-1.2,18.1,5.2,19.5,14.7c0,0.2,0,0.4,0,0.5c0.1,0.7,0.1,1.5,0.7,2.1
		c0.5,0.5,0.6,1.2,0.6,1.9c0,1.2,0,2.3,0,3.5c0,0.5,0.1,0.6,0.6,0.6c3.4,0,6.8,0.1,10.2,0c2.9-0.1,4.8,2.2,4.8,4.8
		c-0.1,11.7,0,23.5,0,35.2c0,0.6,0.1,0.9,0.8,0.8c0.3,0,0.6,0,0.9,0c2.5,0,3.9,1.5,3.5,4c-0.5,4.1-3.9,7.1-7.9,7.1c-21,0-42,0-63,0
		c-3.9,0-6.9-2.5-7.8-6.3c0-0.1,0-0.3-0.2-0.4C1.5,71.2,1.5,70.5,1.5,69.7z M32.7,45.5c-1.5,0.4-2.9,0.7-4.3,1.1
		C22.1,48,17.9,51.8,15.9,58c-1,3-0.6,6.1-0.7,9.2c0,0.4,0.2,0.3,0.5,0.3c1.8,0,3.5,0,5.3,0c0.4,0,0.5-0.1,0.5-0.5
		c0-0.8,0-1.7,0-2.5c0-0.9,0.5-1.5,1.2-1.4c0.7,0,1.1,0.6,1.2,1.4c0,0.8,0,1.7,0,2.5c0,0.4,0.1,0.5,0.5,0.5c2.6,0,5.1,0,7.7,0
		c0.4,0,0.4-0.1,0.4-0.5c-0.2-1.9-0.5-3.7-0.5-5.6c0-0.9,0.4-1.4,1.1-1.5c0.7,0,1.2,0.5,1.3,1.4c0.1,1.9,0.3,3.7,0.6,5.6
		c0.1,0.4,0.2,0.5,0.6,0.5c3.8,0,7.5,0,11.3,0c0.4,0,0.5,0,0.6-0.5c0.4-2.5,0.5-5,0.7-7.6c0.1-2.3,0-4.6-0.1-6.9
		c0-0.5-0.1-0.6-0.6-0.4c-4.1,1.4-8.2,1.4-12.2,0c-0.5-0.2-0.6-0.1-0.6,0.4c0,1.1-0.1,2.1-0.2,3.2c-0.1,0.8-0.5,1.2-1.2,1.2
		c-0.7,0-1.1-0.5-1.1-1.3c0-1.9,0.2-3.7,0.4-5.6C32.3,48.5,32.5,47,32.7,45.5z M41,76.3c10.4,0,20.8,0,31.2,0c3.2,0,5.5-2.1,5.9-5.2
		c0.1-0.9-0.2-1.2-1.1-1.2c-7.6,0-15.2,0-22.8,0c-0.4,0-0.6,0.1-0.7,0.5c-0.8,2.4-2.8,3.9-5.3,3.9c-4.8,0-9.7,0-14.5,0
		c-2.5,0-4.6-1.5-5.3-3.8c-0.2-0.5-0.4-0.6-0.9-0.6c-7.5,0-15.1,0-22.6,0c-1,0-1.3,0.4-1.1,1.3c0.5,3.2,2.8,5.1,6,5.1
		C20.2,76.3,30.6,76.3,41,76.3z M66.8,53.2c0-1.7,0-3.4,0-5.1c0-3.8,0-7.7,0-11.5c0-1-0.3-1.4-1.3-1.4c-0.9,0-1.8,0-2.6,0
		c-0.7,0-1.3-0.5-1.3-1.2c0-0.7,0.5-1.1,1.3-1.1c1,0,2,0,2.9,0c2,0,3.3,1.4,3.3,3.4c0,1.6,0,3.2,0,4.8c0,8.6,0,17.1,0,25.7
		c0,0.6,0.1,0.8,0.7,0.7c0.8-0.1,1.6,0,2.5,0c0.5,0,0.7-0.1,0.7-0.6c0-11.8,0-23.6,0-35.4c0-1.6-0.8-2.4-2.4-2.4
		c-3.5,0-6.9,0-10.4,0c-1.2,0-1.6,0.5-1.6,1.6c0,0.9,0,1.8,0,2.8c0,4-2.2,7.1-6,8.4c-1,0.3-1.9,0.7-2.9,1c1.5,0.6,3,1,4.5,1.3
		c3.4,0.7,6.4,2.2,8.9,4.6C64.4,50.1,65.6,51.6,66.8,53.2z M15.3,53.2c0,0,0.1,0,0.1,0c0.1-0.1,0.2-0.3,0.3-0.4
		c2-3.2,4.8-5.7,8.3-7.3c2.1-1,4.4-1.3,6.6-1.9c0.6-0.2,1.3-0.2,1.9-0.7c-1-0.4-2-0.7-3-1c-3.2-1.1-5.2-3.4-5.8-6.7
		c-0.3-1.5-0.1-3.1-0.1-4.6c0-0.9-0.6-1.5-1.4-1.5c-3.5,0-6.9,0-10.4,0c-1.9,0-2.6,0.7-2.6,2.7c0,5.8,0,11.5,0,17.3
		c0,5.9,0,11.9,0,17.8c0,0.5,0.1,0.7,0.7,0.7c0.8,0,1.5-0.1,2.3,0c0.7,0,0.9-0.1,0.9-0.8c0-6.4,0-12.7,0-19.1c0-3.8,0-7.5,0-11.3
		c0-2,1.4-3.4,3.4-3.4c1,0,2,0,3,0c0.7,0,1.2,0.5,1.2,1.1c0,0.7-0.4,1.2-1.2,1.2c-0.8,0-1.7,0-2.5,0c-1.2,0-1.5,0.3-1.5,1.4
		c0,2.5,0,5.1,0,7.6C15.3,47.3,15.3,50.3,15.3,53.2z M46.5,15.4c-0.1,0.1-0.2,0.2-0.2,0.2c-1.9,2.6-4.5,4.2-7.6,5.1
		c-2.4,0.7-4.9,0.8-7.4,0.8c-0.5,0-0.7,0.1-0.7,0.7c0,1.8,0,3.5,0,5.3c0,4.5,2.7,8.2,6.8,9.8c1.4,0.5,2.9,0.8,4.6,0.6
		c-0.1-0.1-0.2-0.2-0.2-0.2c-1.1-1.1-1.4-2.4-0.9-3.6c0.5-1.3,1.7-2,3.2-2c0.5,0,1,0,1.5,0c1.5-0.1,3,0,3.9,1.5
		c1.1-1.7,1.8-3.4,1.8-5.3c0-2.2,0-4.5,0-6.7c0-0.3-0.1-0.5-0.4-0.7C49,19.6,47.5,17.8,46.5,15.4z M30.5,19.2c1.4,0,2.9,0,4.5-0.1
		c4.2-0.5,7.8-2,10-5.9c0.4-0.6,1-1,1.7-0.9c0.8,0,1.3,0.5,1.6,1.2c0.3,0.7,0.5,1.5,1,2.1c1.3,1.8,2.5,3.8,5.3,3.6
		c1.7-0.1,1.7,0,1.3-1.6C53.8,9.4,46.3,4.4,38,6c-6.2,1.2-11,6.2-12,12.8c-0.1,0.4,0,0.5,0.5,0.5C27.7,19.2,29,19.2,30.5,19.2z
		 M49.5,67.5c2.8,0,5.5,0,8.3,0c0.4,0,0.4-0.2,0.4-0.4c0-0.9,0-1.8,0-2.6c0-0.9,0.5-1.4,1.2-1.4s1.2,0.5,1.2,1.4c0,0.8,0,1.7,0,2.5
		c0,0.4,0.1,0.5,0.5,0.5c1.7,0,3.4,0,5.2,0c0.4,0,0.5-0.1,0.5-0.5c0-1.6,0-3.1,0-4.7c-0.3-6.7-3.5-11.6-9.5-14.6
		c-2.5-1.2-5.2-1.5-8-2.3C50.5,52.8,50.6,60.2,49.5,67.5z M46.1,39.3c-3.4,1.4-6.8,1.4-10.2,0c0,1.1-0.1,2.1-0.3,3.1
		c-0.3,2.2-0.8,4.4-1,6.6c0,0.4,0,0.6,0.4,0.7c4,1.6,8,1.6,12.1,0c0.3-0.1,0.4-0.2,0.4-0.6c-0.1-0.7-0.2-1.5-0.3-2.2
		C46.7,44.4,46.1,42,46.1,39.3z M33.6,39.3c0-1.3,0-1.3-1-2.1c-1.5-1.3-2.6-2.8-3.4-4.6c-0.3-0.6-0.2-1.5-0.8-1.7
		c-0.6-0.2-1.4,0-2.1,0c0,0,0,0-0.1,0c-0.4,0-0.4,0.1-0.4,0.4c0,0.9,0,1.8,0,2.8c0.2,2.7,1.7,4.8,4.3,5.7c0.6,0.2,1.3,0.4,1.9,0.6
		C33.6,40.8,33.6,40.8,33.6,39.3z M41,69.9c-3.2,0-6.4,0-9.6,0c-0.2,0-0.4-0.1-0.6,0.1c-0.1,0.2,0.1,0.4,0.2,0.5
		c0.6,0.8,1.4,1.4,2.5,1.4c5,0,10,0,15,0c1.1,0,1.9-0.5,2.5-1.4c0.1-0.2,0.3-0.3,0.2-0.5c-0.1-0.2-0.4-0.1-0.6-0.1
		C47.4,69.9,44.2,69.9,41,69.9z M28.2,25L28.2,25c0-1,0-2,0-2.9c0-0.4-0.1-0.6-0.5-0.5c-0.6,0-1.1,0-1.7,0c-0.9,0-1.3,0.5-1.4,1.3
		c0,1.4,0,2.8,0,4.2c0,0.8,0.4,1.3,1.3,1.3c0.6,0,1.2,0,1.8,0c0.4,0,0.5-0.1,0.5-0.5C28.2,27,28.2,26,28.2,25z M53.8,25
		C53.8,25,53.8,25,53.8,25c0,1,0,2,0,2.9c0,0.4,0.1,0.6,0.5,0.5c0.6,0,1.2,0,1.8,0c0.8,0,1.3-0.5,1.3-1.3c0-1.4,0-2.8,0-4.2
		c0-0.9-0.5-1.3-1.4-1.3c-0.6,0-1.1,0-1.7,0c-0.4,0-0.5,0.1-0.5,0.5C53.8,23.1,53.8,24,53.8,25z M55.6,36.1c-1.8,0.7-3.4,0.5-5,0.5
		c-0.3,0-0.5,0-0.8,0.2c-0.9,0.7-1.7,1.5-1.4,2.8c0,0.2,0,0.4,0,0.6c0,0.4,0.1,0.5,0.5,0.4c1.1-0.4,2.3-0.7,3.4-1.2
		C53.9,38.8,54.9,37.7,55.6,36.1z M51.9,34.2c0.5,0,0.9,0,1.4,0c1.6,0,2.6-1,2.8-2.6c0.1-0.6,0-1-0.8-0.9c-0.5,0.1-1.1,0-1.6,0
		c-0.2,0-0.4,0-0.4,0.3C53,32.2,52.5,33.2,51.9,34.2z M45.3,36.1c0.5,0,1,0,1.5,0c0.5,0,0.8-0.3,0.8-0.7c0.1-0.5-0.2-0.9-0.7-0.9
		c-1.1-0.1-2.1-0.1-3.2,0c-0.5,0-0.8,0.4-0.7,0.9c0,0.5,0.4,0.7,0.8,0.7C44.3,36.1,44.8,36.1,45.3,36.1z"/>
</g>
</svg>
