<?xml version="1.0" encoding="utf-8"?>
<!-- Generator: Adobe Illustrator 26.0.0, SVG Export Plug-In . SVG Version: 6.00 Build 0)  -->
<svg version="1.1" id="Capa_1" xmlns="http://www.w3.org/2000/svg" xmlns:xlink="http://www.w3.org/1999/xlink" x="0px" y="0px"
	 viewBox="0 0 52 52" style="enable-background:new 0 0 52 52;" xml:space="preserve">
<style type="text/css">
	.st0{fill:#F8F7F7;}
</style>
<g>
	<path class="st0" d="M42,30.4c-0.7-0.1-1.5-1-2.1,0.5c-2.2,5.9-7.7,9.7-13.9,9.7c-6.2,0-11.8-3.8-14-9.7c-0.6-1.5-1.3-0.6-2-0.5
		c-1.2,0.2-0.5,0.9-0.3,1.4c2.5,6.7,9,11.3,16.2,11.3c7.3,0,13.8-4.5,16.3-11.3C42.5,31.3,43.2,30.6,42,30.4z"/>
	<path class="st0" d="M9.7,20.8c0.9,0.7,2,0.4,2.5-0.6c3.4-8.5,13.5-12.1,21.3-7.5c3.1,1.9,5.3,4.5,6.6,7.9c0.2,0.5,0.2,0.9,0.9,0.6
		c0.5-0.3,1.4-0.1,1.7-0.7c-0.1-0.4-0.2-0.7-0.4-1c-3-7.7-10.9-12.3-19.1-10.9c-6.6,1.1-11,4.9-13.5,11C9.6,20,9.2,20.4,9.7,20.8z"
		/>
	<path class="st0" d="M43,6.7c1.6-0.1,3.2,0,4.8,0C48.7,6.6,49,7,49,7.9c0,1.6,0,3.2,0,4.8c0,0.3-0.1,0.6,0.3,0.8
		c1.1,0.6,2.2-0.1,2.2-1.3c0-0.7,0-1.5,0-2.2c0-0.8,0-1.6,0-2.5c0-1.9-1.2-3.2-3.1-3.3c-1.8-0.1-3.6,0-5.3,0c-1.2,0-0.8,0.8-0.9,1.4
		C42.1,6.2,42.1,6.7,43,6.7z"/>
	<path class="st0" d="M50.3,37.7c-1.2,0-1.3,0.5-1.3,1.4c0.1,1.4,0,2.7,0,4.1c0,1-0.3,1.4-1.3,1.4c-1.5,0-3.1,0-4.6,0
		c-0.9,0-1,0.5-0.9,1.1c0.1,0.5-0.4,1.4,0.8,1.3c1.9,0,3.7,0.1,5.6,0c1.8-0.1,2.9-1.4,2.9-3.2c0-0.8,0-1.6,0-2.5c0-0.8,0-1.6,0-2.3
		C51.5,38.2,51.4,37.7,50.3,37.7z"/>
	<path class="st0" d="M1.8,13.5c0.5,0,1.2,0.2,1.2-0.8c-0.1-1.5,0-3.1,0-4.6c0-1.1,0.4-1.5,1.5-1.4c1.5,0.1,3,0,4.5,0
		c0.9,0,1-0.4,0.9-1.1C9.8,5,10.2,4.2,9,4.2c-1.8,0.1-3.6,0-5.3,0c-1.7,0.1-3,1.3-3.1,3c-0.1,0.9,0,1.8,0,2.7c0,0,0,0,0,0
		c0,0.9,0,1.8,0,2.7C0.5,13.9,1.3,13.5,1.8,13.5z"/>
	<path class="st0" d="M8.9,44.6c-1.5,0.1-2.9,0-4.4,0c-1.1,0-1.6-0.4-1.5-1.5c0.1-1.5,0-3,0-4.5c0-1-0.5-0.9-1.1-0.8
		c-0.5,0.1-1.4-0.4-1.3,0.8c0,1.8,0,3.6,0,5.3c0.1,1.9,1.3,3,3.1,3.1c0.9,0,1.7,0,2.6,0c0.9,0,1.7-0.1,2.6,0c1,0.1,1-0.5,1-1.2
		C9.8,45.3,10,44.5,8.9,44.6z"/>
	<path class="st0" d="M26,15c-5.9,0-10.7,4.8-10.7,10.7c0,5.9,4.8,10.7,10.7,10.7c6,0,10.7-4.7,10.7-10.7C36.6,19.7,32,15,26,15z
		 M25.9,33.9c-4.5-0.1-8.2-3.8-8.2-8.2c0-4.5,3.7-8.3,8.3-8.3c4.5,0,8.2,3.7,8.2,8.3C34.2,30.3,30.4,34,25.9,33.9z"/>
	<path class="st0" d="M26,20.3c-2.9,0-5.2,2.4-5.2,5.3c0,2.9,2.3,5.3,5.3,5.3c2.9,0,5.3-2.4,5.3-5.3C31.3,22.7,28.8,20.3,26,20.3z
		 M26,28.5c-1.5,0-2.8-1.3-2.8-2.8c0-1.5,1.3-2.9,2.9-2.9c1.5,0,2.8,1.4,2.8,2.8C28.8,27.1,27.5,28.4,26,28.5z"/>
</g>
</svg>
