<?xml version="1.0" encoding="utf-8"?>
<!-- Generator: Adobe Illustrator 26.0.0, SVG Export Plug-In . SVG Version: 6.00 Build 0)  -->
<svg version="1.1" id="Capa_1" xmlns="http://www.w3.org/2000/svg" xmlns:xlink="http://www.w3.org/1999/xlink" x="0px" y="0px"
	 viewBox="0 0 52 52" style="enable-background:new 0 0 52 52;" xml:space="preserve">
<style type="text/css">
	.st0{fill:#F2F2F2;}
</style>
<path class="st0" d="M48.5,19.5c-1-2.5-2.9-1.9-4.7-1.8c-2,0-1.9,1.6-1.8,2.9c0.1,1.2-0.4,1.6-1.6,1.6c-1.1-0.1-2.1,0-1.9-1.5
	c0.3-2.6-1-3.4-3.3-3c-2.3,0.4-3-0.5-2.7-2.7c0.3-1.8-0.7-2.6-2.5-2.5c-1.9,0.1-3.7,0-5.6,0c-0.6,0-1.2,0.1-1.3-0.8
	c-0.1-1,0.6-1,1.3-1c1.6,0,3.2,0,4.8,0c0.7,0,1.6,0.2,1.5-1.1c0-1-0.4-1.3-1.4-1.3c-5,0-10,0-15,0c-1.1,0-1.3,0.5-1.3,1.4
	c0,1.1,0.7,1,1.4,1c1.8,0,3.6,0,5.3,0c0.6,0,1.2,0,1.3,0.8c0.1,1-0.6,1-1.3,1c-1.7,0-3.4,0.1-5.1,0c-1.8-0.1-2.9,0.4-2.7,2.4
	c0.1,1.2-0.5,1.4-1.5,1.3c-0.8-0.1-1.7,0.1-2.5,0c-1.4-0.2-2,0.4-1.9,1.9c0.1,1.9,0,3.7,0,5.6C5.9,24.2,6,25,5,25.1
	c-1.1,0-0.8-0.8-0.9-1.4c0-2.7,0-5.4,0-8.1c0-1,0.1-1.8-1.4-1.8c-1.4,0-1.4,0.8-1.4,1.8c0,3.6,0,7.3,0,10.9c0,3.7,0,7.5,0,11.2
	c0,1,0,1.8,1.4,1.8c1.5,0,1.4-0.8,1.4-1.8c0-2.8,0-5.6,0-8.4c0-0.6-0.3-1.5,0.9-1.4c1.1,0.1,0.9,0.8,0.9,1.5c0,1.6,0,3.2,0,4.8
	c0,3.1,0.2,3.4,3.3,3.3c2.8-0.1,5.4,0,7.3,2.4c2.7,3.3,6.3,4.1,10.5,3.7c2.1-0.2,4.2,0,6.4,0c4.7,0,5.3,0.9,5.1-4.9
	c-0.1-1.4,0.2-2.1,1.9-2.1c1.8,0,1.5,1.1,1.6,2.2c0,1.1-0.3,2.4,1.1,3.1c2.1,1,4.8,0,5.7-2.1C51.7,33,51.1,26.3,48.5,19.5z
	 M47.4,38.5c-0.5,1.3-1.3,1.8-2.7,1.6C43,40,43.8,38.7,43.8,38c-0.1-3-0.2-2.9-4.1-3.1c-2.4-0.1-3.1,0.8-3.1,3.1
	c0.1,3.7,0,3.7-3.6,3.7c-1,0-2-0.1-3.1,0c-5.6,0.7-10.5-0.4-14.4-4.9c-1.7-1.9-4-1.1-6-1.1c-1.6,0-2-0.5-1.9-2c0.1-2.4,0-4.7,0-7.1
	s0.1-4.7,0-7.1c-0.1-1.5,0.5-1.9,1.9-1.8c2.2,0.1,4.7,0.6,4.3-3.1c-0.1-1,1.1-0.6,1.6-0.6c4.5,0,9,0,13.5-0.1c1.3,0,1.7,0.3,1.7,1.7
	c0,3.5,0.1,3.6,3.5,3.5c1.8-0.1,2.9,0.1,2.6,2.3c-0.3,1.6,0.7,2.3,2.3,2.2c0.7,0,1.4-0.1,2,0c1.9,0.2,2.9-0.5,2.8-2.6
	c0-0.7-0.6-1.8,0.9-1.9c1.1-0.1,1.8,0.2,2.3,1.4C49.3,26.6,49.7,32.5,47.4,38.5z"/>
</svg>
