<?xml version="1.0" encoding="utf-8"?>
<!-- Generator: Adobe Illustrator 26.0.0, SVG Export Plug-In . SVG Version: 6.00 Build 0)  -->
<svg version="1.1" id="Capa_1" xmlns="http://www.w3.org/2000/svg" xmlns:xlink="http://www.w3.org/1999/xlink" x="0px" y="0px"
	 viewBox="0 0 82 82" style="enable-background:new 0 0 82 82;" xml:space="preserve">
<style type="text/css">
	.st0{fill:#020203;}
</style>
<path class="st0" d="M66.7,45.6c-1-5.7-4.4-9.6-9.8-11.6c-0.5-0.2-0.6-0.3-0.4-0.8c0.9-2.6,1.3-5.2,1.3-8.1c0-2.8-0.5-5.7-1.6-8.5
	c-1.4-3.5-3.7-6.1-7.4-7.3c-0.6-0.2-1.2-0.3-1.6,0.2c-0.5,0.5-0.4,1-0.2,1.6c0.3,0.9,0.5,1.8,0.4,2.7c-0.1,1.6-1.1,2.8-2.5,3.2
	c-1.4,0.3-2.7-0.4-3.5-1.8c-0.7-1.3-0.8-2.8-0.6-4.2c0.4-2.8,1.3-5.4,2.5-7.9c0.3-0.6,0.4-1.1-0.1-1.6c-0.5-0.5-1.1-0.5-1.7-0.2
	c-0.9,0.4-1.7,0.8-2.5,1.3c-5.7,3.7-7.8,10.9-5.1,17.3c0.4,1,0.9,2,1.1,3.1c0.2,1,0.2,2.1-0.8,2.7c-1,0.6-2,0.4-2.9-0.2
	c-0.9-0.5-1.3-1.3-1.7-2.3c-0.4-1.2-0.5-2.5-0.8-3.7c-0.1-0.6-0.4-1.1-1-1.2c-0.6-0.1-1.1,0.1-1.4,0.7c-2.6,4.5-3.1,9.3-1.3,14.2
	c0.2,0.6,0,0.7-0.4,0.8c-7,2.5-11,9.8-9.4,17.1c1,4.3,3,8,5.6,11.4c5.2,7,11.8,12.7,18.8,17.8c1,0.7,1.3,0.7,2.3,0
	c4.9-3.5,9.5-7.3,13.6-11.7c3.7-3.9,7.1-8.1,9.3-13.2C66.5,52.4,67.3,49.1,66.7,45.6z M27.3,23.7c0.6,1.8,1.5,3.2,3,4.1
	c2.6,1.5,5.7,0.8,7-1.7c0.7-1.4,0.7-2.8,0.3-4.2c-0.3-1.3-0.9-2.5-1.4-3.7c-1.7-4.3-0.5-9.4,3-12.5c0.2-0.2,0.3-0.4,0.6-0.4
	c-0.6,1.8-1.1,3.7-1.4,5.6c-0.3,2.6,0.1,5,2,7c1.6,1.6,3.5,2.1,5.6,1.5c2.1-0.7,3.4-2.2,3.8-4.4c0.2-0.7,0.2-1.5,0.2-2.4
	c2,1.4,3.2,3.2,4,5.3c1.8,5,1.7,9.9,0,14.9c-0.1,0.4-0.3,0.6-0.8,0.5c-4.6-0.3-8.5,1.3-11.7,4.6c-0.4,0.4-0.6,0.5-1,0
	c-3.2-3.4-7.1-5-11.7-4.7c-0.3,0-0.6,0.2-0.8-0.2C26.6,30.1,26.4,27,27.3,23.7z M62.3,55.5c-2.3,4.7-5.6,8.7-9.3,12.4
	c-3.6,3.6-7.4,6.9-11.5,9.9c-0.3,0.2-0.6,0.4-1,0.1c-6.8-5.1-13.1-10.6-18-17.5c-2.2-3.1-3.9-6.4-4.7-10.2
	c-1.4-6.9,3.8-13.8,10.7-14.3c0.4,0,0.8-0.1,1.1-0.1c4.3,0.2,7.6,1.9,10,5.3c0.9,1.2,1.7,1.2,2.6,0c2.9-4.1,7.7-6,12.6-4.9
	c4.7,1,8.5,5,9.3,9.8C64.7,49.3,63.8,52.5,62.3,55.5z"/>
</svg>
