<?xml version="1.0" encoding="utf-8"?>
<!-- Generator: Adobe Illustrator 26.0.0, SVG Export Plug-In . SVG Version: 6.00 Build 0)  -->
<svg version="1.1" id="Capa_1" xmlns="http://www.w3.org/2000/svg" xmlns:xlink="http://www.w3.org/1999/xlink" x="0px" y="0px"
	 viewBox="0 0 52 52" style="enable-background:new 0 0 52 52;" xml:space="preserve">
<style type="text/css">
	.st0{fill:#FFFFFF;}
	.st1{fill:#FEFEFE;}
</style>
<path class="st0" d="M26,0.5C11.9,0.5,0.5,11.9,0.5,26c0,14.1,11.4,25.5,25.5,25.5c14.1,0,25.5-11.4,25.5-25.5
	C51.5,11.9,40.1,0.5,26,0.5z M26,49.1C13.2,49.1,2.8,38.7,2.8,26c0-12.8,10.4-23.3,23.3-23.2c12.7,0,23.1,10.4,23.1,23.1
	C49.2,38.7,38.8,49.1,26,49.1z"/>
<path class="st1" d="M46,35.5c-0.8,1.9-1.9,3.6-3.2,5.1c-2.5,2.7-5.4,4.7-8.8,6c-0.4,0.2-1,0.6-1.1-0.2c-0.1-0.6-0.8-1.2,0.4-1.7
	c3.8-1.5,7-3.7,9.4-7.1c0.5-0.8,0.9-1.6,1.4-2.4c0.2-0.3,0.1-0.8,0.6-0.7c0.5,0.1,1,0.4,1.5,0.6C46,35.2,46,35.4,46,35.5z"/>
<path class="st1" d="M8.9,17.4c-0.4-0.2-1-0.4-1.4-0.7c-0.4-0.3,0.1-0.7,0.3-1c2.2-3.9,5.1-7.2,9.3-8.9c0.4-0.2,1-0.7,1.2,0.3
	c0.1,0.6,0.7,1.2-0.4,1.6c-3.8,1.5-6.2,4.5-8.3,7.9C9.1,17.3,9.2,17.3,8.9,17.4z"/>
<path class="st0" d="M26,9.7C17.2,9.7,9.9,16.9,9.9,25.6c0,9.3,6.9,16.6,16,16.7C34.8,42.3,42.3,35,42.3,26
	C42.4,17.1,34.9,9.6,26,9.7z M26,40.4c-7.9,0-14.2-6.5-14.2-14.5c0-8,6.4-14.4,14.3-14.4c7.9,0,14.4,6.5,14.4,14.4
	C40.4,33.8,33.8,40.5,26,40.4z"/>
<path class="st1" d="M21.4,30.1c-0.6-0.7-1-1.4-1.3-2.3c-0.1-0.3-0.4-0.3-0.6-0.3c-2.2,0.2-4.4,0.4-6.6,0.6c-0.7,0-0.6,0.3-0.5,0.8
	c0.6,2.9,2,5.3,4.1,7.3c0.5,0.4,0.7,0.5,1.1-0.1c1.1-1.7,2.3-3.4,3.5-5.1c0.1-0.2,0.2-0.3,0.4-0.5C21.5,30.3,21.5,30.2,21.4,30.1z
	 M18.8,31.2c-0.6,0.9-1.2,1.7-1.9,2.7c-1.1-1.3-1.9-2.5-2.3-4c1.1-0.1,2.2-0.2,3.2-0.3c0.4,0,0.9-0.2,1.2,0.4
	C19.4,30.5,19.1,30.8,18.8,31.2z"/>
<path class="st1" d="M21.3,21.2c-1.2-1.8-2.5-3.5-3.7-5.3c-0.3-0.5-0.6-0.4-1-0.1c-2,1.9-3.4,4.2-4.1,6.8c-0.3,0.9-0.1,1.3,0.9,1.4
	c2,0.1,4,0.3,5.9,0.4c0.3,0.1,0.6,0.1,0.7-0.1c0.3-0.9,0.9-1.7,1.4-2.5C21.7,21.6,21.4,21.4,21.3,21.2z M19.1,22.1
	c-0.2,0.5-0.6,0.5-1,0.5c-1.1-0.1-2.2-0.2-3.4-0.3c0.5-1.6,1.2-2.8,2.3-4c0.7,1,1.3,1.9,2,2.8C19.2,21.4,19.3,21.7,19.1,22.1z"/>
<path class="st1" d="M39.2,23.1c-0.7-2.8-2-5.2-4.2-7.2c-0.5-0.4-0.7-0.5-1,0.1c-1.2,1.8-2.4,3.5-3.6,5.2c-0.2,0.3-0.5,0.5-0.2,0.9
	c0.6,0.6,1,1.4,1.3,2.2c0.1,0.4,0.5,0.5,0.8,0.3c2.1-0.2,4.2-0.4,6.2-0.5C39.2,24,39.4,23.8,39.2,23.1z M36.5,22.4
	c-1,0.1-1.9,0.1-2.9,0.2c-0.5,0-0.8-0.1-1-0.5c-0.3-0.5,0-0.7,0.2-1c0.6-0.9,1.3-1.8,2-2.8c1,1.1,1.6,2.2,2.1,3.4
	C37,22,37.1,22.3,36.5,22.4z"/>
<path class="st1" d="M30,13.2c-2.8-0.9-5.6-0.9-8.5,0c-0.7,0.2-0.6,0.5-0.3,1c0.7,1.5,1.5,3,2.2,4.6c0.5,1.2,1,2.1,2.5,1.5
	c0.6-0.2,1.5,0.6,1.9-0.5c0.8-1.9,1.7-3.8,2.6-5.6C30.7,13.6,30.7,13.4,30,13.2z M27.9,15.2c-0.5,0.9-0.8,1.8-1.3,2.7
	c-0.4,0.7-1.1,0.7-1.5,0c-0.6-1.1-1-2.2-1.6-3.3c1.4-0.3,2.7-0.3,4-0.1C28.1,14.5,28.2,14.7,27.9,15.2z"/>
<path class="st0" d="M38.5,28c-2.1-0.1-4.1-0.3-6-0.5c-0.6-0.1-0.9-0.1-1,0.3c-0.3,0.8-0.7,1.5-1.2,2.1c-0.3,0.3-0.1,0.6,0.1,0.9
	c1.2,1.8,2.5,3.5,3.7,5.3c0.4,0.5,0.6,0.4,1,0c2.2-2,3.5-4.4,4.2-7.2C39.4,28.3,39.2,28.1,38.5,28z M34.7,33.9
	c-0.7-1.1-1.5-2-2.1-3.1c-0.4-0.6,0-1.3,0.8-1.3c1.2,0,2.3,0.2,3.6,0.3C36.6,31.4,35.8,32.6,34.7,33.9z"/>
<path class="st1" d="M30.4,38.2c-0.8-1.5-1.5-3.1-2.2-4.7c-0.5-1.1-0.9-1.9-2.3-1.3c-1.6-0.7-2.1,0.3-2.6,1.6
	c-0.6,1.5-1.4,3-2.1,4.5c-0.3,0.5-0.2,0.8,0.4,1c2.8,0.8,5.6,0.9,8.4,0C30.6,39,30.7,38.8,30.4,38.2z M25.9,37.9
	c-2.5,0-2.5,0-1.4-2.3c0.3-0.6,0.3-1.7,1.4-1.7c1.1,0,0.9,1.2,1.4,1.7c0,0,0,0.1,0.1,0.1C28.3,37.9,28.3,37.9,25.9,37.9z"/>
<path class="st0" d="M30.7,26.8c-0.1-0.4-0.1-0.9,0-1.4c0.5-1.7,0-2.6-1.7-3.1c-0.4-0.1-0.9-0.4-1.2-0.7c-1.3-1.2-2.2-1.2-3.5-0.1
	c-0.4,0.4-1,0.7-1.5,0.9c-1.5,0.5-2,1.4-1.6,3c0.1,0.5,0.1,1,0,1.5c-0.4,1.5,0.2,2.7,1.6,3c0.5,0.1,1.2,0.4,1.4,0.8
	c0.4,0.8,1.1,0.8,1.8,0.8c0.6,0,1.2,0.1,1.6-0.7c0.3-0.5,1-0.8,1.6-1C30.7,29.2,31.2,28.3,30.7,26.8z M26,29.3
	c-1.8,0-3.3-1.5-3.3-3.3c0-1.8,1.5-3.3,3.3-3.3s3.3,1.5,3.3,3.3C29.3,27.8,27.9,29.3,26,29.3z"/>
</svg>
