<?xml version="1.0" encoding="utf-8"?>
<!-- Generator: Adobe Illustrator 26.0.0, SVG Export Plug-In . SVG Version: 6.00 Build 0)  -->
<svg version="1.1" id="Capa_1" xmlns="http://www.w3.org/2000/svg" xmlns:xlink="http://www.w3.org/1999/xlink" x="0px" y="0px"
	 viewBox="0 0 52 52" style="enable-background:new 0 0 52 52;" xml:space="preserve">
<style type="text/css">
	.st0{fill:#FCFBFC;}
	.st1{fill:#F2F2F2;}
	.st2{fill:#030404;}
</style>
<path class="st0" d="M13.9-343.2c-0.1,13.9-11.3,24.8-25.3,24.6c-13.5-0.2-24.7-11.6-24.6-25c0.1-13.7,11.5-25,25.3-24.9
	C3.1-368.4,14-357.2,13.9-343.2z"/>
<path class="st1" d="M473.2-318.3c0-7.2,0-14.3,0-21.5c0-2,0-3.5,2.8-3.5c2.9-0.1,2.8,1.5,2.7,3.4c0,5.3,0,10.6,0,16
	c0,1.2-0.5,2.9,1.7,2.8c2-0.1,1.8-1.6,1.8-2.9c0-3.7,0.1-7.3,0-11c-0.1-2.8,1-3.9,3.8-3.6c1.6,0.2,3.3-0.1,5,0.1
	c1.9,0.1,3.2-0.2,3-2.6c-0.3-3.8,1.8-4.9,5.3-4.7c3.3,0.2,6.7,0,10,0.1c1.5,0,2.7-0.1,2.6-2c-0.1-1.7-1.3-1.6-2.5-1.6
	c-3.5,0-7,0-10.5,0c-1.4,0-2.7,0.2-2.7-1.9c0-1.8,0.5-2.7,2.5-2.7c9.8,0.1,19.7,0.1,29.5,0c1.9,0,2.6,0.6,2.7,2.6
	c0,2.5-1.6,2.1-3,2.1c-3.2,0-6.3,0-9.5,0c-1.4,0-2.7,0-2.6,2c0.1,1.8,1.4,1.5,2.6,1.5c3.7,0,7.3,0.2,11,0c3.7-0.2,5.5,1.3,5,4.9
	c-0.6,4.3,0.8,6.1,5.3,5.4c4.5-0.8,7.1,0.9,6.5,5.9c-0.4,3.1,1.6,2.9,3.7,3c2.4,0.1,3.3-0.7,3.1-3.1c-0.1-2.7-0.3-5.8,3.6-5.8
	c3.4,0,7.2-1.3,9.1,3.6c5.2,13.2,6.3,26.4,0.6,39.7c-1.8,4.2-7.1,6-11.2,4.1c-2.8-1.3-2.1-3.9-2.2-6.1c-0.1-2.1,0.5-4.2-3.1-4.2
	c-3.3,0-3.9,1.4-3.8,4.2c0.4,11.2-0.8,9.4-10,9.5c-4.2,0-8.4-0.4-12.5,0.1c-8.1,0.9-15.2-0.8-20.6-7.2c-3.9-4.7-8.9-4.9-14.4-4.7
	c-6.1,0.2-6.4-0.3-6.5-6.5c0-3.2,0-6.3,0-9.5c0-1.3,0.3-2.8-1.7-2.9c-2.3-0.1-1.7,1.5-1.7,2.8c0,5.5,0,11,0,16.5
	c0,1.9,0.2,3.5-2.7,3.5c-2.8-0.1-2.8-1.5-2.8-3.5C473.3-303.7,473.2-311,473.2-318.3z M485.7-317.8c0,4.7,0.2,9.3-0.1,14
	c-0.2,3,0.7,3.9,3.8,3.9c4,0,8.5-1.7,11.8,2.1c7.6,8.7,17.2,11,28.2,9.6c2-0.3,4,0,6,0c7.2,0,7.4,0,7.2-7.3c-0.2-4.5,1.3-6.3,6-6.1
	c7.7,0.3,7.8,0.1,8,6c0.1,1.4-1.5,3.8,1.7,4.2c2.7,0.3,4.2-0.6,5.3-3.2c4.6-11.8,3.8-23.3-0.7-34.9c-0.9-2.4-2.3-2.9-4.5-2.7
	c-2.8,0.2-1.8,2.5-1.7,3.8c0.2,4-1.7,5.4-5.4,5.1c-1.3-0.1-2.7-0.1-4,0c-3.1,0.2-5-1.1-4.5-4.3c0.7-4.3-1.5-4.7-5-4.6
	c-6.7,0.2-6.8,0-6.9-6.9c0-2.6-0.7-3.4-3.4-3.3c-8.8,0.2-17.6,0-26.5,0.1c-1.1,0-3.4-0.9-3.2,1.1c0.7,7.2-4.3,6.2-8.5,6
	c-2.8-0.1-3.8,0.6-3.6,3.5C485.9-327.1,485.7-322.5,485.7-317.8z"/>
<path class="st1" d="M-175.5-367.9c27.7,0.2,49.6,22.3,49.4,50c-0.2,27-22.5,48.9-49.6,48.8c-27.7-0.1-49.5-22.2-49.4-50
	C-225-346-202.5-368.1-175.5-367.9z M-140.6-289.9c0.6-0.8,1.2-1.6,1.7-2.5c7.2-9.3,9.8-20,8.4-31.4c-3.1-26.2-27.3-44.1-53.1-39.7
	c-25.2,4.3-41.7,29-36.5,54.5c6.6,32.4,47.2,46.8,72.7,25.8c0.9-0.8,2.8-1.3,1.9-3.9c-4.5,3.6-9,6.7-14.1,8.8
	c-1.4,0.6-2.4,1-3.2-0.8c-0.7-1.7,0-2.2,1.5-2.9c8.9-3.9,16.4-9.5,20.6-18.6c0.7-1.5,1.6-1.1,2.8-0.7c1.6,0.6,1.3,1.6,0.7,2.6
	c-0.9,1.8-1.9,3.5-2.8,5.2c-0.5,0.7-1,1.5-1.6,2.2c-0.6,0.6-1.9,1.3-1,2.1C-141.6-287.8-141.2-289.3-140.6-289.9z"/>
<path class="st0" d="M15.7-290.2c-6.7-3-9.9,1.2-13.2,5.7c-3.1,4.1-6.5,8-9.8,12c-3.7,4.4-8.4,5.3-12.2,2.4c-3.8-3-4.1-7.9-0.6-12.3
	c6-7.5,12.1-14.9,18.4-22.3c3.4-4.1,4.2-3.5,6.9,0.8C8.3-299.1,12.2-294.8,15.7-290.2z"/>
<path class="st0" d="M15.6-313.6c1.9-0.2,3.2,0.9,4.5,2.4c9.2,11.1,18.5,22.1,27.7,33.2c2.1,2.5,2.5,5.3-0.1,7.5
	c-2.7,2.3-5.5,1.7-7.8-1.1c-9.3-11.1-18.5-22.1-27.7-33.2c-1.5-1.8-2-3.9-1.1-6C11.8-312.6,13.3-313.6,15.6-313.6z"/>
<path class="st0" d="M37.2-300.8c-4.6-5.4-8.5-10.1-12.4-14.8c-0.3-0.4-0.9-0.8-0.9-1.2c0.9-8,0.5-16.3,4.7-23.5
	c2-3.3,6-3.5,9.4-1.9c3.5,1.7,5.1,4.7,4.5,8.6C40.9-322.9,39.1-312.3,37.2-300.8z"/>
<path class="st0" d="M232.7-301.8c-4.4,0.4-8.3,1.3-9.2-4.6c-0.3-2.1-10.8-1.7-11.9,0.2c-2.5,4.7-2.5,4.7-9,4.3
	c3.4-9.8,6.5-19.6,10.1-29.2c1.2-3.3,4.6-0.9,7-1.5c1.9-0.5,2.9,0.5,3.5,2.4C226.3-320.7,229.5-311.4,232.7-301.8z M217.6-324.9
	c-1,2.9-1.8,4.9-2.3,6.9c-0.3,1.2-1.9,3,0,3.8c1.4,0.6,3.5,0.6,4.8,0c1.7-0.9,0.1-2.6-0.3-3.8C219.2-320.1,218.5-322,217.6-324.9z"
	/>
<path class="st0" d="M258.7-317.3c0.2-15.3,8.1-16.8,20.3-15.2c3.5,0.4,1.9,3.3,2.1,5.2c0.3,3.1-2.2,1.9-3.4,1.6
	c-8.2-1.9-13,0.6-11,12.2c0.8,4.9,3.5,6.2,9.8,5.4c1.7-0.2,4.4-2.3,4.7,1.7c0.3,3.1-0.3,4.7-4.1,5.1
	C264.1-300,258.7-304.4,258.7-317.3z"/>
<path class="st0" d="M31-345.5c-6.4,0-11.3-4.9-11.4-11.3c-0.1-6.6,5-11.8,11.5-11.7c6.2,0.1,11.4,5.4,11.4,11.5
	C42.5-350.8,37.2-345.5,31-345.5z"/>
<path class="st0" d="M233.3-296.4c5-12.3,9.8-24,14.7-35.7c1.5-3.5,4.9-2.1,6.9-1.5c2.2,0.7,0,2.8-0.5,4.1
	c-3.7,9.2-7.6,18.3-11.4,27.4C240.4-296,240.5-296,233.3-296.4z"/>
<path class="st1" d="M57.9-339.9c-1.1,3.8-4.2,6.1-7.3,8.1c-1.4,0.9-1.8-0.5-1.8-1.9c-0.1-2.6,0-5.1-0.7-7.8c-0.7-2.8,2.3-3.9,4.4-4
	C55.7-345.5,57.5-343.3,57.9-339.9z"/>
<path class="st2" d="M485.7-317.8c0-4.7,0.2-9.3-0.1-14c-0.2-2.9,0.9-3.7,3.6-3.5c4.2,0.2,9.2,1.2,8.5-6c-0.2-2,2.1-1.1,3.2-1.1
	c8.8-0.1,17.7,0.1,26.5-0.1c2.6,0,3.3,0.7,3.4,3.3c0,6.9,0.2,7.1,6.9,6.9c3.5-0.1,5.7,0.3,5,4.6c-0.5,3.2,1.4,4.5,4.5,4.3
	c1.3-0.1,2.7-0.1,4,0c3.8,0.4,5.6-1.1,5.4-5.1c-0.1-1.3-1.1-3.5,1.7-3.8c2.2-0.2,3.6,0.3,4.5,2.7c4.6,11.6,5.3,23.1,0.7,34.9
	c-1,2.6-2.6,3.5-5.3,3.2c-3.2-0.4-1.7-2.8-1.7-4.2c-0.3-5.9-0.3-5.8-8-6c-4.7-0.2-6.1,1.6-6,6.1c0.3,7.3,0,7.3-7.2,7.3
	c-2,0-4-0.2-6,0c-11,1.4-20.6-0.8-28.2-9.6c-3.3-3.8-7.8-2.1-11.8-2.1c-3.1,0-4-0.9-3.8-3.9C485.9-308.5,485.7-313.2,485.7-317.8z"
	/>
<path class="st2" d="M-140-293.2c0.9-1.7,1.9-3.5,2.8-5.2c0.6-1.1,0.9-2-0.7-2.6c-1.2-0.5-2.1-0.9-2.8,0.7
	c-4.2,9.1-11.8,14.6-20.6,18.6c-1.5,0.7-2.2,1.2-1.5,2.9c0.8,1.8,1.8,1.3,3.2,0.8c5.1-2.1,9.5-5.1,14.1-8.8c0.9,2.6-1,3.1-1.9,3.9
	c-25.5,21-66.1,6.6-72.7-25.8c-5.2-25.5,11.3-50.2,36.5-54.5c25.8-4.4,50,13.4,53.1,39.7c1.4,11.4-1.2,22.1-8.4,31.4
	C-139.2-292.6-139.6-292.9-140-293.2z M-143.9-318.7c0-17.5-14.2-31.7-31.7-31.8c-17.7,0-31.8,14.2-31.7,32.1
	c0,17.6,14,31.7,31.5,31.7C-158.1-286.6-143.9-300.9-143.9-318.7z M-209.9-335.6c1.5,0.3,1.7-0.9,2.2-1.7c4-6.5,8.7-12.2,16-15.2
	c1.4-0.6,1.7-1.3,1.2-2.7c-0.7-1.7-1.7-1.6-3.1-0.9c-8.1,3.7-13.5,10-17.9,17.4C-213-336.2-210.9-336.3-209.9-335.6z"/>
<path class="st2" d="M-141.5-290.9c0.5-0.7,1-1.5,1.6-2.2c0.4,0.3,0.7,0.6,1.1,0.9c-0.6,0.8-1.2,1.6-1.7,2.5
	C-140.9-290.2-141.2-290.6-141.5-290.9z"/>
<path class="st2" d="M-140.6-289.9c-0.6,0.5-1,2.1-2,1c-0.8-0.9,0.4-1.5,1-2.1C-141.2-290.6-140.9-290.2-140.6-289.9z"/>
<path class="st1" d="M51.5,16.9c0-4.3-1.6-5.8-5.9-5.8c-13,0-26,0-39,0c-4.4,0-6,1.6-6,6.1c0,6.5,0,13,0,19.5c0,4.3,1.6,5.9,5.8,5.9
	c6.6,0,13.2,0,19.8,0c6.4,0,12.8,0,19.2,0c4.6,0,6-1.5,6-5.9C51.5,30,51.5,23.4,51.5,16.9z M45.7,40.4c-3.3,0-6.6,0-9.9,0
	c-3.3,0-6.6,0-9.9,0c-6.4,0-12.8,0-19.2,0c-3.3,0-4-0.7-4-4c0-6.5,0-13,0-19.5c0-2.9,0.8-3.7,3.7-3.7c13.1,0,26.2,0,39.3,0
	c2.4,0,3.7,0.9,3.7,3.5c-0.1,6.8-0.1,13.5,0,20.3C49.4,39.5,48.1,40.4,45.7,40.4z"/>
<path class="st2" d="M217.6-324.9c0.9,2.8,1.6,4.8,2.2,6.8c0.4,1.3,2,2.9,0.3,3.8c-1.3,0.7-3.4,0.6-4.8,0c-1.9-0.8-0.3-2.6,0-3.8
	C215.7-320,216.6-322,217.6-324.9z"/>
<path class="st1" d="M-143.9-318.7c0,17.8-14.2,32.1-31.9,32.1c-17.5,0-31.5-14.1-31.5-31.7c0-17.9,14-32.2,31.7-32.1
	C-158.1-350.4-143.9-336.2-143.9-318.7z M-184.1-325.5c5.8-1,5.8-1.5,3.5-6.7c-1.6-3.6-6.1-8.4-3.9-10.8c3.3-3.4,9.4-2,14.3-1.3
	c0.6,0.1,1.2,0.5,1.9,0.6c0.9,0.2,1.7,0.6,1.2,1.6c-2.3,4.5-3.2,9.8-7.3,13.2c2,2,5,3.2,8,4.5c0-1.2-2-2.1-0.8-3.5
	c2.9-3.6,4.6-10.1,8.4-10.2c3.6-0.1,6.2,5.8,7.7,10.1c0.1,0.3,0.3,0.6,0.4,0.9c1.6,3.4,0.8,5.1-3.2,5c-3,0-6,0.5-9,0.5
	c-2,0-3.6-0.1-3.7,2.6c-0.1,2.5,0.6,3.6,3.3,3.6c3.3,0,6.6,0.8,9.9,0.7c3.7-0.1,3.8,1.8,2.8,4.3c-1.2,3.1-2.8,6.1-4.6,9.9
	c10.4-9.8,9.8-27.7-0.7-38c-11.3-11.1-27.5-10.2-37.7-2.2c-1.5,1.2-0.3,1.3,0.5,2.3c3.2,3.7,6.5,7.4,8.1,12.2
	c-1.8,4.7-5.5,5.3-9.8,4.5c-2-0.3-4-0.3-5.9-0.8c-3.5-0.9-3.5,1.3-3.4,3.6c0.1,2.2-0.6,4.9,3.3,4.4c3.9-0.5,8-1.4,11.8-0.8
	c4.1,0.6,4-1.9,3.3-3.7C-186.4-321.7-185.4-323.5-184.1-325.5z M-194-297.1c7.4,5.6,7.4,5.6,11.2-2.5c0.5-1,1.1-2,1.5-3.1
	c0.9-2.4,1.8-4,5.2-4.1c3.3,0,4.2,1.6,5.2,4c1,2.4,2.2,4.8,3.4,7.1c0.6,1.1-0.4,3.4,2.2,3c2.6-0.4,4.8-1.8,6.4-3.5
	c1.8-1.9-1.2-2.1-1.8-3.2c-1.7-3-4.5-5.5-5.7-8.7c-1.7-4.3-4.1-3.6-6.2-1.4c-2.5,2.5-4.5,2.2-6.7,0.1c-2.6-2.4-4.4-1.9-6.3,1.1
	C-188.1-304.3-190.3-300.2-194-297.1z M-181.4-318.1c-1.7,5,3.4,5.7,5.5,5.8c2.1,0.1,5.7-1.3,5.9-5.8c0.2-4.7-3.2-6.3-5.7-6.4
	C-178.1-324.4-182.6-323.1-181.4-318.1z M-172.2-339.1c0.1-2.6-1.8-2.3-3-2.2c-1.7,0.1-4.8-1.1-4.6,1.6c0.1,2.1,0.8,6,3.8,6
	C-173.3-333.6-173.7-337.5-172.2-339.1z M-193.5-333.9c-1.9,2.9-4,5-4.3,8.6c2.9-1,6.6,1.6,8.1-0.8
	C-188.2-328.6-192-330.6-193.5-333.9z M-176.2-294.8c1.5-0.4,4.3,0.6,3.9-1.6c-0.4-2.3-0.8-6.1-3.9-6c-2.6,0-3.2,3.7-3.6,5.8
	C-180.4-294.1-177.6-295.3-176.2-294.8z M-193.1-302.5c0.7-3.7,5.3-5.2,3.3-8.3c-1.2-1.9-6-1.5-7.1,0.2
	C-198.6-308.2-195.6-305.8-193.1-302.5z M-158.6-302.6c1.7-3.3,5-5.5,3.5-8c-0.9-1.6-5.9-2.1-7.1-0.2
	C-164.1-307.9-160.1-306.1-158.6-302.6z M-158.8-333.4c-1.2,2.6-5.2,4.7-3.7,7.3c1.5,2.5,5.3,0.3,8.5,0.4
	C-155.4-328.8-156.3-331.4-158.8-333.4z M-170.9-291.3c-3.5,0-7,0-10.5,0C-177.9-290.4-174.4-290.2-170.9-291.3z M-183.3-292
	c-0.3-0.2-0.4-0.4-0.6-0.4c-0.3,0-0.5,0.1-0.8,0.2c0.2,0.2,0.3,0.5,0.5,0.5C-184-291.7-183.7-291.9-183.3-292z"/>
<path class="st1" d="M-209.9-335.6c-1-0.7-3-0.6-1.7-3c4.4-7.5,9.8-13.8,17.9-17.4c1.5-0.7,2.5-0.8,3.1,0.9c0.5,1.4,0.3,2.1-1.2,2.7
	c-7.3,3-12,8.7-16,15.2C-208.2-336.5-208.4-335.3-209.9-335.6z"/>
<path class="st0" d="M4.6,26.8c0-2.8,0-5.6,0-8.4c0-0.8-0.2-1.8,1.1-1.7c1,0.1,0.8,1,0.8,1.7c0,5.7,0,11.5,0,17.2
	c0,0.7,0.1,1.6-0.9,1.6c-1,0-0.9-0.9-0.9-1.6C4.6,32.7,4.6,29.8,4.6,26.8z"/>
<path class="st0" d="M47.7,27c0,2.8,0,5.6,0,8.4c0,0.7,0.3,1.9-0.9,1.9c-1.2,0.1-1-1-1-1.8c0-5.7,0-11.3,0-17c0-0.8-0.3-1.8,1-1.8
	c1.2,0.1,0.9,1.2,0.9,1.9C47.8,21.5,47.7,24.2,47.7,27z"/>
<path class="st0" d="M15.9,36.3c-1.6,0-3.2,0-4.9,0c-0.7,0-1.3-0.3-1.3-1.1c0-0.8,0.6-1.1,1.3-1.1c3.2,0,6.3,0,9.5,0
	c0.7,0,1.3,0.2,1.3,1.1c0,0.8-0.5,1.1-1.2,1.1C18.9,36.3,17.4,36.3,15.9,36.3z"/>
<path class="st0" d="M36.4,36.3c-1.5,0-3.1,0-4.6,0c-0.7,0-1.2-0.4-1.1-1.2c0.1-0.6,0.5-0.9,1.1-0.9c3.2,0,6.5,0,9.7,0
	c0.7,0,1.2,0.4,1.1,1.2c-0.1,0.7-0.7,1-1.4,1C39.6,36.3,38,36.3,36.4,36.3z"/>
<path class="st2" d="M-184.7-326.1c-1.6-4.8-4.9-8.5-8.1-12.2c-0.8-1-2-1.1-0.5-2.3c10.2-8,26.4-9,37.7,2.2
	c10.4,10.3,11,28.2,0.7,38c1.8-3.8,3.3-6.8,4.6-9.9c1-2.5,0.9-4.4-2.8-4.3c-3.3,0.1-6.6-0.7-9.9-0.7c-2.7,0-3.4-1.1-3.3-3.6
	c0.1-2.7,1.7-2.6,3.7-2.6c3,0,6-0.5,9-0.5c4,0,4.8-1.6,3.2-5c-0.1-0.3-0.3-0.6-0.4-0.9c-1.6-4.3-4.2-10.2-7.7-10.1
	c-3.8,0.1-5.5,6.7-8.4,10.2c-1.2,1.4,0.8,2.3,0.8,3.5c-3-1.3-5.9-2.5-8-4.5c4.1-3.4,5-8.8,7.3-13.2c0.5-1-0.3-1.4-1.2-1.6
	c-0.6-0.1-1.2-0.5-1.9-0.6c-5-0.7-11.1-2.1-14.3,1.3c-2.3,2.4,2.2,7.1,3.9,10.8c2.3,5.2,2.2,5.7-3.5,6.7
	C-184.3-325.7-184.5-325.9-184.7-326.1z"/>
<path class="st2" d="M-194-297.1c3.7-3.2,5.9-7.3,8.4-11.1c1.9-3,3.7-3.5,6.3-1.1c2.3,2.1,4.2,2.5,6.7-0.1c2.2-2.2,4.6-2.9,6.2,1.4
	c1.2,3.2,4,5.7,5.7,8.7c0.6,1.1,3.6,1.3,1.8,3.2c-1.7,1.7-3.8,3.1-6.4,3.5c-2.6,0.4-1.6-1.9-2.2-3c-1.2-2.3-2.4-4.7-3.4-7.1
	c-1-2.4-1.9-4-5.2-4c-3.4,0-4.3,1.6-5.2,4.1c-0.4,1.1-1,2.1-1.5,3.1C-186.6-291.5-186.6-291.5-194-297.1z"/>
<path class="st2" d="M-184.1-325.5c-1.3,2-2.3,3.8-1.3,6.6c0.7,1.8,0.7,4.3-3.3,3.7c-3.8-0.6-7.9,0.3-11.8,0.8
	c-4,0.5-3.3-2.1-3.3-4.4c-0.1-2.3,0-4.4,3.4-3.6c1.9,0.5,4,0.4,5.9,0.8c4.3,0.8,8,0.2,9.8-4.5C-184.5-325.9-184.3-325.7-184.1-325.5
	z"/>
<path class="st2" d="M-181.4-318.1c-1.2-5,3.2-6.3,5.6-6.3c2.5,0,5.9,1.6,5.7,6.4c-0.2,4.5-3.8,5.9-5.9,5.8
	C-178-312.3-183.1-313-181.4-318.1z"/>
<path class="st2" d="M-172.2-339.1c-1.5,1.7-1.2,5.5-3.9,5.4c-3-0.1-3.7-3.9-3.8-6c-0.2-2.7,2.9-1.5,4.6-1.6
	C-173.9-341.4-172-341.7-172.2-339.1z"/>
<path class="st2" d="M-193.5-333.9c1.5,3.3,5.3,5.3,3.8,7.8c-1.5,2.5-5.1-0.2-8.1,0.8C-197.4-328.9-195.4-331.1-193.5-333.9z"/>
<path class="st2" d="M-176.2-294.8c-1.3-0.5-4.1,0.7-3.6-1.8c0.4-2.2,1-5.8,3.6-5.8c3.1-0.1,3.5,3.8,3.9,6
	C-172-294.2-174.8-295.2-176.2-294.8z"/>
<path class="st2" d="M-193.1-302.5c-2.5-3.2-5.4-5.6-3.9-8c1.1-1.7,5.9-2.1,7.1-0.2C-187.8-307.7-192.5-306.3-193.1-302.5z"/>
<path class="st2" d="M-158.6-302.6c-1.5-3.5-5.6-5.3-3.6-8.2c1.3-1.9,6.2-1.4,7.1,0.2C-153.6-308.2-156.8-305.9-158.6-302.6z"/>
<path class="st2" d="M-158.8-333.4c2.4,2,3.4,4.6,4.8,7.7c-3.3-0.1-7,2.1-8.5-0.4C-164-328.8-159.9-330.8-158.8-333.4z"/>
<path class="st2" d="M-170.9-291.3c-3.5,1.1-7,0.9-10.5,0C-177.9-291.3-174.4-291.3-170.9-291.3z"/>
<path class="st2" d="M-183.3-292c-0.4,0.1-0.7,0.3-1,0.3c-0.2,0-0.3-0.3-0.5-0.5c0.3-0.1,0.5-0.2,0.8-0.2
	C-183.7-292.4-183.5-292.2-183.3-292z"/>
<path class="st0" d="M43.5,19c-0.1-2.7-1.5-4.3-4.2-4.3c-8.8-0.1-17.5-0.1-26.3,0c-2.7,0-4,1.7-4.1,4.4c-0.1,2.1,0,4.2,0,6.2
	c0,3.6,1.5,5,5.2,5c4.1,0,8.1,0,12.2,0c4.2,0,8.3,0,12.5,0c3.3,0,4.7-1.6,4.8-4.8C43.5,23.3,43.6,21.2,43.5,19z M41.4,25.4
	c0,1.8-0.8,2.7-2.5,2.7c-8.5,0-17,0-25.5,0c-1.6,0-2.5-0.9-2.5-2.5c0-2,0.1-4,0-6c-0.1-2.1,0.9-2.9,3-2.9c4.2,0.1,8.3,0,12.5,0
	c4,0,7.9,0.1,11.9,0c2.4-0.1,3.3,0.9,3.2,3.2C41.3,21.8,41.4,23.6,41.4,25.4z"/>
<path class="st1" d="M25.9,31.9c-2.1,0.1-3.2,1.3-3.3,3.5c0,2,1.6,3.6,3.5,3.6c1.9,0,3.6-1.8,3.5-3.7C29.6,33.2,27.9,31.7,25.9,31.9
	z M26,36.6c-0.8,0-1.3-0.5-1.2-1.4c0-0.8,0.5-1.1,1.2-1.2c0.8,0,1.3,0.4,1.5,1.2C27.3,36.1,26.8,36.6,26,36.6z"/>
</svg>
